<?xml version="1.0" standalone="no"?>
<!DOCTYPE svg PUBLIC "-//W3C//DTD SVG 20010904//EN"
 "http://www.w3.org/TR/2001/REC-SVG-20010904/DTD/svg10.dtd">
<svg version="1.0" xmlns="http://www.w3.org/2000/svg"
 width="860.000000pt" height="830.000000pt" viewBox="0 0 860.000000 830.000000"
 preserveAspectRatio="xMidYMid meet">

<g transform="translate(0.000000,830.000000) scale(0.100000,-0.100000)"
fill="#000000" stroke="none">
<path d="M4275 7886 c-11 -7 -202 -119 -425 -247 l-405 -234 -510 -5 -509 -5
-50 -85 c-28 -47 -141 -242 -252 -434 l-201 -348 -434 -252 -434 -251 -5 -510
-5 -510 -247 -428 -247 -427 247 -428 247 -427 5 -510 5 -509 80 -47 c44 -26
239 -140 434 -252 l354 -204 204 -354 c113 -195 226 -390 252 -434 l47 -80
509 -5 510 -5 428 -247 427 -247 428 247 427 247 510 5 509 5 47 80 c26 44
139 239 252 434 l204 354 354 204 c195 112 390 226 434 252 l80 47 5 509 5
510 247 427 247 428 -247 427 -247 428 -5 510 -5 510 -434 251 -434 251 -251
434 -251 434 -510 5 -510 5 -180 104 c-99 57 -291 169 -428 248 -136 78 -248
143 -250 143 -1 0 -11 -6 -22 -14z m-136 -270 l-124 -216 -255 0 c-233 1 -253
2 -230 16 106 65 726 420 729 418 2 -2 -52 -100 -120 -218z m148 -213 c-3 -2
-60 -2 -129 -1 l-124 3 126 217 125 217 3 -216 c1 -119 1 -218 -1 -220z m176
180 l106 -183 -130 0 -129 0 0 223 0 222 24 -40 c13 -22 71 -122 129 -222z
m626 -179 c2 -2 -110 -4 -250 -4 l-254 0 -122 213 c-68 118 -123 216 -123 219
0 5 737 -416 749 -428z m-1730 -48 c-9 -7 -410 -237 -423 -242 -9 -3 -106 47
-228 117 -117 67 -215 124 -217 126 -2 1 193 3 434 3 241 0 436 -2 434 -4z
m161 -319 c45 -170 80 -311 77 -313 -2 -2 -141 75 -308 172 -167 97 -310 179
-318 183 -8 5 66 54 220 143 129 74 237 132 240 129 4 -3 43 -145 89 -314z
m453 291 c-11 -18 -93 -160 -183 -315 -89 -156 -166 -283 -169 -283 -5 0 -84
288 -167 608 l-6 22 272 0 272 0 -19 -32z m317 -489 c0 -286 -3 -518 -7 -516
-308 175 -631 363 -640 371 -10 9 31 86 175 338 l187 327 143 1 142 0 0 -521z
m492 193 c144 -252 185 -329 175 -338 -9 -8 -332 -196 -639 -371 -5 -2 -8 230
-8 516 l0 521 143 0 142 -1 187 -327z m368 322 c0 -16 -163 -610 -169 -617 -4
-4 -81 120 -171 275 -90 156 -172 298 -183 316 l-19 32 271 0 c149 0 271 -3
271 -6z m482 -263 c4 -3 -135 -88 -309 -188 -174 -101 -318 -181 -321 -179 -3
4 147 580 163 623 2 8 89 -37 232 -119 125 -72 231 -133 235 -137z m477 266
c-2 -2 -100 -59 -217 -126 -122 -70 -219 -120 -228 -117 -13 5 -414 235 -423
242 -2 2 193 4 434 4 241 0 436 -2 434 -3z m-3417 -133 c120 -70 218 -127 216
-129 -31 -25 -222 -124 -228 -118 -15 15 -219 373 -213 373 3 0 105 -57 225
-126z m3342 -56 c-58 -101 -109 -187 -114 -191 -6 -6 -197 93 -228 118 -4 3
431 255 440 255 4 0 -40 -82 -98 -182z m-3471 -25 c76 -131 102 -184 94 -191
-15 -12 -207 -122 -213 -122 -2 0 -4 116 -4 257 0 156 4 253 9 248 5 -6 57
-92 114 -192z m3594 -310 c-4 -3 -189 100 -214 119 -11 9 12 54 171 323 l41
70 3 -254 c1 -140 1 -256 -1 -258z m-3734 -14 c-16 -15 -426 -250 -430 -246
-2 3 34 69 80 148 46 79 137 236 201 349 65 113 126 216 135 230 15 24 16 11
19 -224 1 -137 -1 -253 -5 -257z m3897 261 c68 -118 161 -280 207 -359 46 -79
82 -145 80 -148 -3 -2 -101 52 -218 120 l-214 124 -3 254 c-2 215 0 251 11
239 8 -8 69 -112 137 -230z m-3006 -215 c153 -88 280 -165 283 -171 2 -6 -27
-65 -65 -130 -38 -65 -122 -210 -186 -321 -65 -112 -121 -203 -124 -203 -6 1
-309 521 -490 840 l-32 57 122 71 122 70 46 -26 c25 -15 171 -99 324 -187z
m2504 120 l82 -48 -32 -57 c-200 -351 -484 -839 -490 -840 -3 0 -59 91 -124
203 -64 111 -148 255 -186 321 -38 65 -67 123 -65 129 1 5 149 94 327 197
l325 188 40 -23 c22 -12 77 -44 123 -70z m-2883 -485 c132 -228 247 -430 258
-447 l19 -33 -386 0 -386 0 0 384 0 383 123 71 c67 39 125 68 128 64 3 -4 113
-194 244 -422z m3138 338 l87 -50 0 -384 0 -384 -386 0 -386 0 19 33 c11 17
129 222 263 455 l243 422 36 -21 c20 -12 75 -44 124 -71z m-3645 -614 l-3
-186 -233 232 c-128 128 -229 237 -225 241 4 4 109 66 233 138 l225 130 3
-184 c1 -102 1 -269 0 -371z m3987 416 c116 -66 213 -125 218 -129 6 -6 -385
-409 -447 -460 -15 -12 -16 19 -16 358 0 351 1 371 18 362 9 -5 112 -64 227
-131z m-2427 -165 c161 -93 289 -172 285 -176 -15 -14 -464 -271 -468 -268 -1
2 -40 141 -84 309 -45 168 -84 314 -88 324 -5 19 -5 19 28 0 19 -11 166 -96
327 -189z m896 -120 c-48 -176 -88 -322 -89 -324 -5 -4 -467 263 -469 272 -1
6 636 378 641 373 1 -1 -36 -146 -83 -321z m-1184 5 c45 -168 83 -313 86 -322
5 -17 -13 -18 -270 -18 -152 0 -276 2 -276 5 0 3 59 108 131 233 199 343 241
414 244 410 2 -2 40 -140 85 -308z m1475 -10 c98 -168 179 -311 182 -317 4
-10 -54 -13 -272 -13 -258 0 -276 1 -271 18 19 65 166 622 166 628 0 18 27
-26 195 -316z m-2994 -92 l233 -233 -187 -3 c-103 -1 -270 -1 -372 0 l-184 3
81 140 c153 265 189 325 193 325 2 0 108 -105 236 -232z m4615 -4 l133 -229
-184 -3 c-102 -1 -269 -1 -372 0 l-187 3 230 231 c126 128 233 231 238 230 5
-1 69 -105 142 -232z m-4916 202 c0 -2 -56 -100 -124 -218 l-123 -213 -254 -3
c-179 -2 -250 1 -243 8 12 12 725 427 737 429 4 1 7 -1 7 -3z m5211 -205 c194
-112 361 -210 369 -218 12 -11 -24 -13 -239 -11 l-254 3 -123 213 c-68 118
-124 216 -124 219 0 7 -5 10 371 -206z m-2801 -96 l0 -135 -227 0 c-141 0
-223 4 -217 9 7 8 431 257 442 260 1 1 2 -60 2 -134z m464 -126 c6 -5 -76 -9
-217 -9 l-227 0 0 135 0 134 218 -125 c119 -69 221 -129 226 -135z m-3134 -24
c0 -4 -85 -152 -116 -202 -14 -22 -15 -22 -196 83 -101 58 -187 110 -192 115
-6 5 91 9 247 9 141 0 257 -2 257 -5z m810 -380 c0 -364 -1 -385 -17 -376
-187 101 -887 515 -885 523 1 5 32 61 69 124 l66 114 383 0 384 0 0 -385z
m777 378 c-25 -45 -270 -469 -271 -470 -2 -3 -341 332 -421 416 l-58 61 377 0
c207 0 375 -3 373 -7z m547 -2 c-13 -13 -374 -221 -382 -221 -6 1 -121 195
-130 221 -2 5 108 9 259 9 163 0 259 -4 253 -9z m536 -878 c0 -487 -2 -884 -4
-882 -4 4 -76 272 -352 1304 -63 237 -117 438 -120 448 -5 16 11 17 235 17
l241 0 0 -887z m496 870 c-3 -10 -39 -145 -81 -300 -83 -312 -184 -690 -307
-1148 -44 -165 -82 -302 -84 -304 -2 -2 -4 395 -4 882 l0 887 241 0 c224 0
240 -1 235 -17z m572 8 c-9 -26 -124 -220 -130 -221 -8 0 -369 208 -382 221
-6 5 90 9 253 9 151 0 261 -4 259 -9z m730 -48 c-83 -87 -422 -423 -424 -420
-1 1 -246 425 -271 470 -2 4 166 7 373 7 l377 0 -55 -57z m915 -57 c37 -63 68
-119 69 -124 2 -8 -698 -422 -884 -523 -17 -9 -18 12 -18 376 l0 385 384 0
383 0 66 -114z m481 105 c-5 -5 -91 -57 -192 -115 -181 -105 -182 -105 -196
-83 -31 50 -116 198 -116 202 0 3 116 5 257 5 156 0 253 -4 247 -9z m-3451
-883 c130 -485 235 -883 233 -885 -3 -3 -233 393 -815 1401 -41 72 -70 132
-65 133 5 2 97 55 204 118 107 63 198 114 201 115 3 0 112 -397 242 -882z
m980 766 c111 -64 204 -118 205 -120 2 -1 -195 -347 -438 -769 -244 -421 -444
-764 -446 -762 -2 2 32 138 77 303 124 463 251 934 325 1212 37 138 69 252 71
252 2 0 95 -52 206 -116z m-3539 -114 c8 -8 -110 -220 -122 -220 -7 0 -252
422 -252 433 0 6 358 -198 374 -213z m1263 -69 c100 -102 181 -186 180 -187
-1 -1 -105 -62 -232 -134 -126 -73 -233 -134 -237 -137 -5 -2 -8 165 -8 373
l0 377 57 -54 c32 -30 140 -137 240 -238z m554 184 c32 -55 58 -105 59 -111 0
-6 -73 -53 -162 -105 -90 -51 -179 -102 -197 -113 l-35 -20 40 70 c137 245
220 383 228 381 5 -2 35 -48 67 -102z m2184 -52 c50 -87 108 -189 129 -227
l40 -70 -35 20 c-18 11 -107 62 -196 113 -90 52 -163 98 -163 104 0 5 8 24 19
41 10 17 37 64 60 104 23 39 45 72 49 72 4 -1 48 -71 97 -157z m683 -402 l-3
-190 -225 130 c-124 72 -231 133 -238 138 -9 5 61 81 225 246 l238 238 3 -186
c1 -102 1 -271 0 -376z m1221 335 c-68 -119 -127 -216 -131 -216 -12 0 -130
212 -122 220 14 14 369 217 373 214 2 -2 -52 -100 -120 -218z m-6042 -233 c4
-9 -219 -414 -243 -442 -2 -2 -4 193 -4 434 l0 439 121 -209 c67 -115 123
-215 126 -222z m6171 -228 l-3 -213 -124 214 c-96 168 -122 219 -115 234 5 10
61 108 124 218 l115 198 3 -219 c1 -120 1 -314 0 -432z m-5490 155 c215 -124
390 -229 389 -234 -4 -14 -639 -377 -651 -372 -14 5 -382 646 -378 658 1 5 32
61 68 124 l66 114 57 -32 c32 -18 234 -134 449 -258z m1510 13 c88 -153 276
-478 417 -723 141 -245 268 -465 282 -490 l26 -45 -28 25 c-65 59 -1275 1273
-1272 1276 8 8 403 234 409 234 3 0 78 -125 166 -277z m1911 165 c97 -55 184
-106 194 -113 15 -10 -59 -88 -628 -656 -355 -354 -648 -646 -652 -649 -8 -6
-43 -68 342 600 186 322 383 663 438 758 75 130 103 172 115 167 8 -3 94 -51
191 -107z m1715 -2 c36 -63 67 -119 68 -124 4 -12 -364 -653 -378 -658 -12 -5
-646 358 -651 372 -1 5 35 30 80 55 45 26 246 142 447 258 201 116 366 211
367 211 1 0 31 -51 67 -114z m-3587 -765 c345 -345 637 -639 648 -652 20 -23
20 -23 -25 3 -25 14 -259 149 -520 300 -261 151 -587 339 -723 418 -188 108
-247 146 -242 158 7 18 228 402 231 402 1 0 285 -283 631 -629z m2211 436 c61
-107 114 -200 117 -209 5 -12 -45 -45 -207 -138 -117 -68 -458 -265 -758 -438
-620 -358 -567 -327 -560 -318 11 15 1285 1294 1291 1295 3 1 55 -86 117 -192z
m-4224 -147 c97 -168 173 -306 169 -307 -14 -5 -621 161 -623 170 -1 5 58 112
131 239 88 154 135 226 140 217 4 -8 87 -151 183 -319z m1339 298 c-10 -18
-61 -106 -112 -195 -52 -90 -99 -163 -105 -163 -16 1 -210 116 -213 126 -2 7
431 264 445 264 2 0 -5 -15 -15 -32z m3080 -128 c92 -52 165 -99 164 -104 -3
-10 -197 -125 -213 -126 -6 0 -53 73 -105 163 -51 89 -102 178 -113 197 l-21
34 61 -34 c34 -19 136 -78 227 -130z m1405 -83 c83 -144 127 -229 119 -232
-48 -17 -619 -166 -623 -163 -2 3 78 147 179 321 100 174 185 313 188 309 4
-4 65 -110 137 -235z m-4948 -313 c0 -257 -1 -275 -17 -270 -61 17 -624 166
-630 166 -4 0 -2 5 3 10 13 13 626 369 637 369 4 1 7 -123 7 -275z m134 211
c58 -33 106 -63 106 -67 0 -8 -208 -369 -221 -382 -5 -6 -9 93 -9 253 0 151 4
261 9 259 5 -1 57 -30 115 -63z m3596 -197 c0 -159 -4 -258 -9 -252 -13 13
-221 374 -221 382 1 7 209 130 223 131 4 1 7 -117 7 -261z m318 91 c335 -193
345 -199 340 -204 -2 -2 -140 -40 -308 -85 -168 -45 -313 -83 -322 -86 -17 -5
-18 13 -18 270 0 152 2 276 5 276 3 0 139 -77 303 -171z m-3660 -42 c1093
-630 1402 -810 1399 -813 -2 -2 -71 14 -153 37 -82 22 -248 66 -369 99 -121
32 -346 92 -500 134 -154 41 -383 102 -510 136 -126 34 -231 63 -233 65 -4 3
231 415 236 415 2 0 61 -33 130 -73z m3215 -133 c65 -113 117 -207 115 -209
-2 -2 -71 -21 -153 -43 -304 -82 -1315 -352 -1459 -391 -82 -23 -151 -39 -153
-37 -2 2 297 177 664 389 367 212 711 410 763 441 52 31 97 56 100 56 3 0 58
-93 123 -206z m-4606 49 c161 -43 293 -81 293 -84 0 -3 -127 -80 -282 -170
-156 -89 -298 -171 -315 -182 l-33 -19 0 272 0 272 23 -6 c12 -3 154 -40 314
-83z m6083 -184 l0 -271 -32 19 c-18 11 -160 93 -315 182 -156 90 -283 167
-283 170 0 6 589 168 618 170 9 1 12 -59 12 -270z m-6460 -41 l0 -253 -213
-122 c-118 -68 -216 -123 -219 -123 -4 0 91 169 210 375 119 206 218 375 219
375 2 0 3 -114 3 -252z m6723 -125 c118 -205 213 -373 209 -373 -3 0 -101 55
-219 123 l-213 122 0 254 c0 140 2 252 4 250 2 -2 101 -172 219 -376z m-5828
-78 c98 -170 180 -313 182 -317 2 -5 -230 -8 -516 -8 l-521 0 0 143 1 142 327
187 c252 144 329 185 338 175 6 -7 91 -151 189 -322z m165 244 c168 -45 307
-83 308 -84 4 -3 -254 -454 -267 -468 -4 -4 -83 124 -176 285 -93 161 -178
308 -189 327 -19 33 -19 33 0 28 10 -4 156 -43 324 -88z m4703 59 c-10 -18
-95 -165 -188 -326 -93 -161 -172 -289 -176 -285 -13 13 -271 464 -267 468 3
3 628 173 641 174 5 1 0 -14 -10 -31z m425 -188 l271 -155 1 -142 0 -143 -521
0 -521 0 25 43 c13 23 93 161 177 307 84 146 159 275 167 288 l14 23 58 -33
c32 -18 180 -103 329 -188z m-3898 -201 c476 -127 867 -233 869 -235 2 -2
-395 -4 -882 -4 l-887 0 0 241 c0 224 1 240 18 235 9 -3 406 -109 882 -237z
m2820 1 l0 -240 -887 1 c-489 0 -882 3 -876 6 14 5 1744 471 1756 472 4 1 7
-107 7 -239z m-3733 -237 c-3 -2 -63 -2 -134 -1 l-130 3 81 140 c45 77 104
178 131 225 l50 85 3 -224 c1 -123 1 -226 -1 -228z m3868 247 c59 -102 116
-200 127 -217 l20 -33 -136 0 -136 0 0 227 c0 140 4 223 9 218 5 -6 58 -93
116 -195z m-5248 -247 c-2 -2 -101 -2 -220 -1 l-216 3 217 125 217 126 3 -124
c1 -69 1 -126 -1 -129z m6908 21 l40 -24 -222 0 -223 0 0 129 0 130 183 -106
c100 -58 200 -116 222 -129z m-6905 -173 l0 -130 -182 106 c-101 58 -201 116
-223 129 l-40 24 223 0 222 0 0 -129z m1077 122 c-176 -309 -363 -631 -371
-640 -9 -10 -84 29 -336 175 l-325 187 -3 143 -3 142 521 0 c287 0 519 -3 517
-7z m303 -220 c0 -138 -4 -223 -9 -217 -5 5 -57 92 -116 194 -59 102 -116 200
-127 218 l-20 32 136 0 136 0 0 -227z m1779 223 c-4 -4 -228 -64 -1319 -356
-228 -61 -423 -113 -432 -116 -17 -5 -18 11 -18 235 l0 241 887 0 c487 0 884
-2 882 -4z m1951 -237 c0 -224 -1 -240 -17 -235 -10 3 -205 55 -433 116 -1091
292 -1315 352 -1319 356 -2 2 395 4 882 4 l887 0 0 -241z m262 209 c-11 -18
-68 -116 -127 -218 -59 -102 -111 -189 -116 -194 -5 -6 -9 79 -9 217 l0 227
136 0 136 0 -20 -32z m1086 -110 l-3 -143 -325 -187 c-252 -146 -327 -185
-336 -175 -8 9 -195 331 -371 640 -2 4 230 7 517 7 l521 0 -3 -142z m447 118
c-22 -13 -122 -71 -222 -129 l-183 -106 0 130 0 129 223 0 222 0 -40 -24z
m-5665 -229 c72 -126 130 -230 128 -232 -5 -4 -642 -174 -644 -172 -2 1 81
148 183 325 103 177 190 319 194 315 4 -5 67 -111 139 -236z m4355 -83 c101
-175 183 -320 181 -321 -2 -2 -639 167 -644 172 -2 2 49 95 113 207 147 254
156 270 162 265 2 -3 87 -148 188 -323z m-2430 307 c-17 -15 -1526 -883 -1529
-879 -12 13 -237 410 -234 413 1 1 273 75 603 164 330 88 724 194 875 235 293
79 299 81 285 67z m560 -96 c769 -205 1370 -367 1373 -370 3 -3 -222 -400
-234 -413 -3 -5 -1514 866 -1529 880 -7 7 -3 8 10 5 11 -4 182 -49 380 -102z
m-3928 -33 l203 -117 0 -254 c0 -140 -2 -252 -4 -250 -23 24 -431 749 -418
744 9 -3 107 -59 219 -123z m6926 -244 c-118 -205 -217 -375 -219 -377 -2 -2
-4 110 -4 250 l0 254 213 122 c116 68 215 123 218 123 4 0 -90 -168 -208 -372z
m-3528 332 c-62 -110 -870 -1508 -876 -1514 -6 -7 -325 167 -402 219 -16 11
47 78 605 636 343 343 632 635 643 648 l20 24 -20 -11 c-11 -6 -303 -295 -649
-642 -551 -552 -631 -628 -641 -612 -37 55 -218 376 -219 388 -1 9 278 176
758 453 577 333 762 436 772 427 6 -6 11 -13 9 -16z m595 -240 c250 -145 591
-342 758 -438 240 -138 302 -178 297 -191 -6 -16 -198 -351 -220 -384 -11 -15
-86 56 -641 611 -346 345 -638 634 -649 642 l-20 15 20 -25 c11 -14 300 -306
643 -649 558 -558 621 -625 605 -636 -65 -45 -395 -226 -401 -221 -3 4 -203
347 -443 763 -331 574 -434 759 -425 769 6 6 13 11 16 9 3 -1 210 -121 460
-265z m-594 144 c-14 -49 -65 -242 -116 -429 -50 -187 -145 -542 -211 -790
-67 -247 -122 -452 -124 -453 -3 -3 -400 222 -413 234 -2 1 193 344 433 761
241 417 440 762 442 766 14 25 10 -9 -11 -89z m44 -794 l0 -890 -240 0 c-132
0 -240 1 -240 3 0 1 56 211 125 467 69 256 176 655 237 887 62 233 114 423
116 423 1 0 2 -400 2 -890z m266 -15 c124 -462 227 -848 230 -857 5 -17 -11
-18 -235 -18 l-241 0 1 893 c1 603 4 881 11 857 5 -19 111 -413 234 -875z
m229 132 c240 -417 435 -760 433 -761 -14 -12 -410 -237 -413 -234 -2 2 -21
71 -43 153 -22 83 -74 276 -116 430 -41 154 -118 442 -171 640 -53 198 -108
401 -121 450 -27 102 -27 102 -15 90 5 -6 205 -351 446 -768z m-3347 343 c155
-89 282 -166 282 -169 0 -3 -134 -42 -298 -85 -163 -43 -305 -81 -314 -84 -17
-4 -18 13 -18 268 l0 272 33 -19 c17 -11 159 -93 315 -183z m6069 -337 c-7 -6
-627 162 -624 169 1 5 142 89 312 187 l310 180 3 -266 c1 -146 1 -268 -1 -270z
m-5077 62 c0 -151 -2 -275 -5 -275 -8 0 -627 359 -638 369 -4 5 72 29 170 56
98 26 241 64 318 85 77 22 143 39 148 39 4 1 7 -123 7 -274z m4080 185 c168
-45 306 -83 308 -85 4 -3 -48 -34 -410 -244 -125 -72 -229 -131 -232 -131 -4
0 -6 124 -6 276 0 257 1 275 18 270 9 -3 154 -41 322 -86z m-3946 -138 c58
-101 106 -186 106 -190 -1 -6 -195 -121 -221 -130 -5 -2 -9 108 -9 259 0 163
4 259 9 254 5 -6 57 -92 115 -193z m3592 -319 c-5 -6 -225 120 -226 129 0 6
151 272 204 358 l21 35 3 -259 c1 -142 1 -261 -2 -263z m-4426 353 c0 -2 -79
-140 -176 -307 -97 -167 -179 -310 -183 -317 -5 -9 -54 67 -140 217 -73 126
-133 233 -133 238 1 4 137 44 304 89 292 79 328 88 328 80z m356 -180 c175
-101 319 -187 321 -192 2 -7 -443 -268 -837 -491 l-58 -33 -67 118 c-38 64
-68 121 -68 127 0 8 102 187 349 613 14 23 29 42 33 42 5 0 152 -83 327 -184z
m4951 -141 c102 -176 186 -325 186 -330 0 -6 -30 -63 -68 -127 l-67 -118 -58
33 c-367 207 -839 484 -837 491 4 13 630 375 646 373 7 -1 96 -146 198 -322z
m176 237 c159 -43 288 -81 289 -85 0 -5 -60 -112 -133 -238 -86 -150 -135
-226 -140 -217 -4 7 -86 150 -183 317 -97 167 -176 306 -176 308 0 7 25 0 343
-85z m-5993 -370 c105 -183 121 -216 112 -235 -5 -12 -62 -112 -126 -222
l-116 -200 0 439 c0 242 2 437 4 435 2 -2 58 -100 126 -217z m6290 -219 l0
-438 -116 200 c-64 110 -121 210 -126 222 -9 18 7 53 113 237 68 119 125 216
127 216 1 0 2 -197 2 -437z m-4729 265 c51 -90 102 -178 113 -197 11 -19 16
-32 11 -30 -6 3 -110 63 -233 134 l-223 128 78 45 c43 24 92 53 108 63 17 10
35 19 41 19 6 0 53 -73 105 -162z m3257 101 c59 -34 108 -63 110 -64 2 -2
-378 -223 -453 -264 -5 -2 0 11 11 30 11 19 62 107 113 197 52 89 98 162 103
162 5 0 57 -28 116 -61z m-3608 -464 l0 -385 -384 0 -383 0 -48 83 c-26 45
-58 100 -71 123 l-24 41 352 203 c194 112 398 229 453 262 55 32 101 58 103
58 1 0 2 -173 2 -385z m255 245 c127 -73 231 -133 232 -134 3 -2 -263 -271
-390 -395 l-87 -85 0 378 c0 207 3 375 8 373 4 -2 111 -64 237 -137z m3473
-420 l-3 -191 -238 237 c-164 164 -234 240 -225 245 7 4 114 66 238 138 l225
130 3 -184 c1 -101 1 -270 0 -375z m500 280 l422 -243 -24 -41 c-13 -23 -45
-78 -71 -123 l-48 -83 -383 0 -384 0 0 386 0 386 33 -19 c17 -11 222 -129 455
-263z m-3579 -260 l130 -225 -184 -3 c-101 -1 -270 -1 -375 0 l-191 3 237 238
c168 170 239 235 245 225 4 -7 66 -114 138 -238z m2869 -30 l192 -195 -191 -3
c-104 -1 -273 -1 -374 0 l-184 3 137 237 136 236 46 -41 c25 -23 132 -130 238
-237z m-2760 140 c89 -51 162 -98 162 -104 -1 -16 -116 -210 -126 -213 -8 -2
-57 81 -234 391 l-34 61 34 -21 c19 -11 108 -62 198 -114z m2420 71 c-176
-310 -224 -390 -232 -388 -12 4 -128 206 -124 217 2 8 375 229 386 230 2 0
-11 -26 -30 -59z m-4188 -57 c34 -58 58 -110 54 -114 -16 -15 -374 -219 -374
-213 0 11 245 433 252 433 3 0 34 -48 68 -106z m5958 -108 c67 -117 122 -216
122 -219 0 -6 -358 198 -374 213 -8 8 110 220 122 220 4 0 62 -96 130 -214z
m-5819 -132 c34 -58 61 -108 61 -110 0 -2 -115 -4 -257 -4 -141 0 -253 3 -249
8 15 15 371 219 378 215 3 -2 34 -51 67 -109z m2003 10 c101 -58 187 -110 193
-115 5 -5 -91 -9 -254 -9 -151 0 -261 4 -259 9 9 26 124 220 130 221 4 0 89
-48 190 -106z m1733 0 c33 -58 62 -110 63 -115 2 -5 -108 -9 -259 -9 -163 0
-259 4 -253 9 14 15 368 219 379 220 6 0 37 -47 70 -105z m2190 -115 c5 -5
-92 -9 -248 -9 -141 0 -257 2 -257 4 0 6 110 198 122 213 7 8 60 -18 191 -94
100 -57 186 -109 192 -114z m-5728 -238 c68 -118 122 -216 119 -218 -2 -2 -68
34 -147 80 -79 46 -241 139 -359 207 -118 68 -222 129 -230 137 -12 11 25 13
240 11 l254 -3 123 -214z m653 216 c0 -12 -465 -466 -471 -460 -7 7 -229 388
-260 446 -9 16 11 17 361 17 203 0 370 -1 370 -3z m769 -54 c-271 -473 -492
-847 -500 -845 -6 1 -62 32 -125 68 l-114 66 0 384 0 384 386 0 385 0 -32 -57z
m607 40 c-3 -10 -41 -155 -86 -323 -45 -168 -83 -306 -85 -308 -2 -2 -10 7
-18 20 -37 59 -357 618 -357 622 0 4 124 6 276 6 257 0 275 -1 270 -17z m504
-119 l0 -136 -32 20 c-18 11 -116 68 -218 127 -102 58 -189 111 -194 116 -6 5
77 9 217 9 l227 0 0 -136z m464 127 c-5 -5 -92 -58 -194 -116 -102 -59 -200
-116 -217 -127 l-33 -20 0 136 0 136 227 0 c140 0 223 -4 217 -9z m606 4 c0
-3 -59 -108 -131 -233 -200 -346 -241 -414 -244 -410 -2 2 -40 140 -85 308
-45 168 -83 313 -86 323 -5 16 13 17 270 17 152 0 276 -2 276 -5z m800 -379
l0 -384 -114 -66 c-63 -36 -119 -67 -125 -68 -8 -2 -254 413 -500 845 l-32 57
385 0 386 0 0 -384z m761 367 c-31 -58 -254 -439 -260 -446 -6 -6 -471 448
-471 460 0 2 167 3 370 3 350 0 370 -1 361 -17z m539 4 c-8 -8 -112 -69 -230
-137 -118 -68 -280 -161 -359 -207 -79 -46 -145 -82 -147 -80 -4 3 182 333
232 415 14 22 16 22 266 22 212 0 250 -2 238 -13z m-3416 -130 c125 -73 227
-137 225 -143 -3 -9 -631 -375 -636 -371 -4 5 171 647 176 647 3 -1 109 -61
235 -133z m839 -189 c47 -177 85 -323 84 -325 -5 -4 -633 362 -636 371 -3 8
442 274 460 276 3 0 44 -145 92 -322z m-2453 -59 l0 -370 -52 30 c-270 154
-410 238 -411 246 -1 10 442 461 456 464 4 0 7 -166 7 -370z m987 46 c101
-175 182 -323 179 -329 -5 -14 -646 -382 -658 -378 -6 1 -61 32 -124 69 l-114
65 33 58 c217 384 484 839 491 837 5 -2 91 -146 193 -322z m2193 -67 c124
-215 240 -417 257 -448 l33 -58 -114 -65 c-63 -37 -118 -68 -124 -69 -12 -4
-653 364 -658 378 -4 9 100 194 342 612 14 23 28 42 32 42 4 -1 108 -177 232
-392z m799 161 c128 -127 229 -235 224 -240 -7 -6 -386 -228 -445 -260 -17 -9
-18 11 -18 361 0 203 2 370 4 370 2 0 108 -104 235 -231z m-2119 -569 l0 -520
-142 0 -143 1 -182 317 c-100 174 -183 323 -185 331 -2 9 109 79 322 202 179
104 326 189 328 189 1 0 2 -234 2 -520z m345 335 c171 -98 316 -183 322 -189
10 -9 -29 -85 -175 -338 l-187 -327 -142 -1 -143 0 0 521 c0 286 3 518 8 516
4 -2 147 -84 317 -182z m-2423 -189 l213 -123 3 -254 c2 -216 0 -251 -11 -239
-12 13 -416 707 -425 732 -2 4 -1 8 1 8 3 0 101 -56 219 -124z m4396 116 c-10
-25 -413 -719 -425 -732 -11 -12 -13 24 -11 240 l3 254 210 122 c206 120 230
132 223 116z m-3008 -149 c0 -3 -32 -126 -71 -272 -40 -146 -77 -285 -83 -309
-6 -24 -15 -43 -19 -44 -5 0 -112 60 -239 132 l-230 133 88 51 c48 28 189 110
314 182 225 132 240 140 240 127z m1721 -174 c173 -100 315 -183 317 -184 4
-4 -455 -267 -465 -267 -4 1 -13 20 -19 44 -6 24 -43 163 -83 309 -70 263 -74
279 -68 279 2 0 145 -82 318 -181z m-1512 -144 l180 -310 -266 -3 c-146 -1
-268 -1 -270 1 -6 7 162 627 170 624 4 -1 88 -142 186 -312z m1260 -4 c45
-167 80 -305 78 -308 -2 -2 -124 -2 -270 -1 l-266 3 181 313 c100 172 185 309
189 305 4 -4 44 -145 88 -312z m-2522 163 c54 -31 103 -61 110 -66 8 -7 -18
-60 -94 -191 -57 -100 -109 -186 -114 -191 -5 -6 -9 91 -9 247 0 141 2 257 4
257 3 0 49 -25 103 -56z m3613 -201 c0 -156 -4 -253 -9 -247 -5 5 -57 91 -115
192 l-106 183 37 22 c116 69 179 105 186 106 4 1 7 -115 7 -256z m-3364 56
c57 -33 104 -64 104 -67 0 -7 -422 -252 -433 -252 -4 0 26 55 65 123 39 67 88
152 110 190 21 37 41 67 44 67 3 0 52 -27 110 -61z m3235 -132 c59 -103 106
-187 102 -187 -14 0 -432 246 -430 253 3 11 200 127 211 124 5 -2 57 -87 117
-190z m-2887 -68 c116 -67 213 -123 215 -125 2 -2 -193 -4 -435 -4 l-438 0
214 125 c118 68 219 125 224 125 5 0 104 -55 220 -121z m2761 -7 l209 -122
-439 0 c-338 1 -435 3 -420 12 11 7 108 63 215 125 107 62 202 111 210 110 8
-2 109 -59 225 -125z m-1767 -375 c67 -118 122 -216 122 -219 0 -5 -737 416
-749 428 -2 2 110 4 250 4 l254 0 123 -213z m152 -9 c0 -122 -2 -219 -4 -217
-2 2 -60 102 -129 222 l-126 217 130 0 129 0 0 -222z m153 5 c-69 -120 -127
-220 -129 -222 -2 -2 -4 95 -4 217 l0 222 129 0 130 0 -126 -217z m646 213
c-12 -12 -749 -433 -749 -428 0 3 55 101 123 219 l122 213 254 0 c140 0 252
-2 250 -4z"/>
</g>
</svg>
