<svg id="svg" version="1.1" xmlns="http://www.w3.org/2000/svg" xmlns:xlink="http://www.w3.org/1999/xlink" width="400" height="377.3376324274528" viewBox="0, 0, 400,377.3376324274528"><g id="svgg"><path id="path0" d="M116.306 130.205 C 116.483 130.252,116.773 130.252,116.951 130.205 C 117.128 130.159,116.983 130.121,116.628 130.121 C 116.274 130.121,116.129 130.159,116.306 130.205 M282.865 130.205 C 283.042 130.252,283.333 130.252,283.510 130.205 C 283.687 130.159,283.542 130.121,283.187 130.121 C 282.833 130.121,282.688 130.159,282.865 130.205 M263.842 186.366 C 264.392 186.923,264.884 187.379,264.934 187.379 C 264.985 187.379,264.576 186.923,264.026 186.366 C 263.475 185.808,262.984 185.352,262.933 185.352 C 262.882 185.352,263.291 185.808,263.842 186.366 M199.908 302.257 C 200.252 302.612,200.574 302.902,200.625 302.902 C 200.676 302.902,200.436 302.612,200.092 302.257 C 199.748 301.902,199.426 301.612,199.375 301.612 C 199.324 301.612,199.564 301.902,199.908 302.257 " stroke="none" fill="#0c8c34" fill-rule="evenodd"></path><path id="path1" d="M114.926 130.209 C 115.155 130.253,115.487 130.251,115.663 130.205 C 115.839 130.159,115.652 130.123,115.246 130.125 C 114.841 130.127,114.697 130.165,114.926 130.209 M284.155 130.205 C 284.332 130.252,284.622 130.252,284.800 130.205 C 284.977 130.159,284.832 130.121,284.477 130.121 C 284.123 130.121,283.977 130.159,284.155 130.205 M82.358 149.793 C 82.142 150.097,82.006 150.345,82.057 150.345 C 82.108 150.345,82.326 150.097,82.543 149.793 C 82.759 149.489,82.895 149.240,82.844 149.240 C 82.793 149.240,82.575 149.489,82.358 149.793 " stroke="none" fill="#0c8c2c" fill-rule="evenodd"></path><path id="path2" d="M199.438 4.591 C 199.165 5.093,198.955 5.553,198.972 5.614 C 198.989 5.675,198.838 5.934,198.637 6.190 C 198.435 6.446,198.177 6.941,198.062 7.289 C 197.947 7.638,197.776 7.923,197.683 7.923 C 197.589 7.923,197.509 8.026,197.505 8.153 C 197.502 8.280,197.214 8.839,196.867 9.397 C 196.520 9.954,196.121 10.659,195.981 10.963 C 195.683 11.611,193.724 14.682,192.915 15.771 C 192.606 16.186,192.354 16.612,192.354 16.716 C 192.354 16.820,192.232 17.006,192.084 17.130 C 191.936 17.253,191.506 17.822,191.129 18.396 C 190.752 18.969,190.396 19.480,190.339 19.530 C 190.281 19.581,189.515 20.576,188.636 21.741 C 187.757 22.906,186.866 24.043,186.656 24.267 C 186.446 24.491,186.274 24.732,186.274 24.803 C 186.274 24.910,185.298 26.050,183.296 28.282 C 183.114 28.485,182.446 29.199,181.810 29.870 C 181.174 30.541,180.234 31.536,179.721 32.081 C 178.801 33.058,174.642 37.007,173.745 37.757 C 172.465 38.826,171.598 39.571,171.086 40.042 C 170.775 40.328,168.830 41.841,166.763 43.403 C 160.719 47.973,158.622 49.958,153.938 55.541 C 153.533 56.024,153.125 56.555,153.033 56.722 C 152.940 56.888,152.814 57.066,152.753 57.117 C 152.597 57.247,150.785 60.036,149.581 61.999 C 148.274 64.130,145.739 69.331,145.739 69.880 C 145.739 70.021,145.682 70.193,145.613 70.263 C 145.476 70.400,145.315 70.825,144.346 73.607 C 143.994 74.620,143.662 75.691,143.609 75.986 C 143.556 76.282,143.456 76.613,143.387 76.723 C 143.319 76.833,143.248 77.006,143.230 77.107 C 143.212 77.209,143.069 77.665,142.912 78.121 C 142.657 78.862,142.109 80.780,141.120 84.385 C 140.606 86.257,139.073 92.174,138.996 92.584 C 138.957 92.787,138.756 93.699,138.547 94.611 C 138.339 95.523,138.097 96.601,138.008 97.006 C 137.920 97.411,137.807 97.909,137.757 98.111 C 137.650 98.551,136.514 104.312,135.996 107.047 C 135.794 108.111,135.579 109.397,135.517 109.903 C 135.456 110.410,135.297 111.446,135.164 112.206 C 134.873 113.877,134.657 113.649,136.929 114.065 C 137.975 114.256,139.245 114.498,139.751 114.603 C 140.258 114.708,140.838 114.826,141.041 114.866 C 141.244 114.906,141.824 115.036,142.331 115.155 C 142.837 115.274,143.418 115.397,143.620 115.428 C 143.823 115.459,144.880 115.701,145.968 115.964 C 147.057 116.228,147.983 116.444,148.026 116.444 C 148.093 116.444,148.198 116.083,148.427 115.062 C 148.945 112.757,150.965 105.892,152.213 102.193 C 153.004 99.853,154.850 96.060,155.500 95.440 C 155.554 95.389,155.709 95.131,155.845 94.866 C 155.981 94.601,156.292 94.170,156.535 93.907 C 156.779 93.644,156.978 93.363,156.978 93.281 C 156.978 93.200,157.144 93.030,157.347 92.903 C 157.550 92.777,157.715 92.575,157.715 92.456 C 157.715 92.252,161.225 88.704,162.418 87.702 C 163.452 86.833,164.493 86.043,164.605 86.043 C 164.666 86.043,164.862 85.913,165.039 85.754 C 166.119 84.787,173.198 80.886,173.878 80.884 C 173.957 80.884,174.792 80.551,175.734 80.144 C 176.676 79.738,177.588 79.383,177.761 79.357 C 177.933 79.330,178.178 79.243,178.305 79.164 C 178.432 79.085,178.535 79.062,178.535 79.114 C 178.535 79.165,178.825 79.086,179.180 78.938 C 179.535 78.790,179.825 78.707,179.825 78.755 C 179.825 78.802,180.177 78.713,180.608 78.557 C 181.039 78.401,181.640 78.230,181.944 78.179 C 182.248 78.127,182.828 77.973,183.234 77.836 C 183.639 77.700,184.219 77.539,184.523 77.480 C 185.844 77.220,188.068 76.818,188.577 76.748 C 188.881 76.706,189.378 76.630,189.682 76.579 C 192.634 76.084,195.136 75.953,200.737 76.003 C 205.608 76.046,207.309 76.147,209.857 76.543 C 210.212 76.598,210.792 76.677,211.147 76.719 C 212.130 76.834,213.205 77.029,213.819 77.203 C 214.123 77.290,214.661 77.399,215.016 77.447 C 217.137 77.729,222.985 79.481,225.242 80.509 C 225.647 80.694,226.186 80.929,226.439 81.032 C 230.180 82.549,235.683 85.927,238.255 88.286 C 238.622 88.623,239.203 89.155,239.544 89.468 C 240.322 90.181,242.285 92.282,242.285 92.403 C 242.285 92.452,242.430 92.652,242.607 92.847 C 244.876 95.347,247.976 101.524,248.648 104.883 C 248.683 105.061,248.763 105.289,248.825 105.389 C 248.888 105.490,248.974 105.759,249.018 105.987 C 249.062 106.216,249.222 106.776,249.373 107.232 C 250.137 109.538,252.552 118.779,252.703 119.976 C 252.740 120.268,252.812 120.573,252.863 120.655 C 252.913 120.738,252.998 121.047,253.051 121.342 C 253.164 121.974,253.448 123.344,253.601 123.998 C 253.707 124.446,254.536 128.964,254.819 130.631 C 254.896 131.087,255.046 131.958,255.151 132.566 C 255.344 133.681,255.703 136.259,255.831 137.448 C 255.869 137.803,255.959 138.466,256.032 138.922 C 256.104 139.378,256.178 139.917,256.195 140.120 C 256.213 140.322,256.278 140.778,256.341 141.133 C 256.403 141.488,256.504 142.441,256.565 143.252 C 256.626 144.063,256.707 145.058,256.746 145.463 C 256.808 146.127,256.896 147.115,257.111 149.608 C 257.431 153.307,257.604 167.079,257.396 172.322 C 257.332 173.939,257.361 174.149,257.681 174.377 C 257.877 174.517,258.624 175.199,259.341 175.893 C 260.058 176.586,261.454 177.900,262.442 178.812 C 263.431 179.724,264.528 180.748,264.881 181.088 C 265.233 181.428,265.554 181.675,265.593 181.635 C 265.845 181.383,266.802 172.582,267.081 167.941 C 267.130 167.130,267.206 166.218,267.250 165.914 C 267.605 163.456,267.763 143.710,267.474 138.001 C 267.287 134.313,267.177 132.580,267.065 131.552 C 267.015 131.096,266.930 130.060,266.876 129.249 C 266.792 128.014,266.444 124.581,266.138 121.971 C 266.096 121.617,266.021 120.922,265.971 120.428 C 265.872 119.457,265.544 117.006,265.412 116.260 C 265.368 116.006,265.157 114.576,264.944 113.080 C 264.731 111.585,264.520 110.175,264.474 109.948 C 264.376 109.452,264.014 107.289,263.943 106.771 C 263.853 106.114,263.091 102.002,262.918 101.244 C 262.725 100.397,262.528 99.380,262.516 99.174 C 262.511 99.096,262.442 98.860,262.362 98.649 C 262.281 98.438,262.170 97.977,262.114 97.625 C 261.742 95.282,258.668 83.308,257.296 78.858 C 257.030 77.996,256.782 77.146,256.745 76.968 C 256.707 76.791,256.626 76.563,256.564 76.462 C 256.502 76.362,256.421 76.126,256.385 75.939 C 256.273 75.355,254.786 71.053,254.513 70.522 C 254.370 70.245,254.257 69.955,254.262 69.878 C 254.298 69.284,250.398 61.539,249.709 60.834 C 249.578 60.700,249.470 60.479,249.470 60.343 C 249.470 60.207,249.398 60.068,249.310 60.034 C 249.175 59.982,248.699 59.307,247.536 57.521 C 247.300 57.159,246.854 56.582,246.602 56.313 C 246.494 56.198,246.154 55.755,245.846 55.329 C 244.086 52.896,239.455 48.206,236.667 46.031 C 236.364 45.794,235.976 45.477,235.805 45.325 C 235.385 44.952,235.129 44.761,234.317 44.219 C 233.938 43.966,233.627 43.696,233.626 43.620 C 233.626 43.544,233.539 43.482,233.433 43.482 C 233.241 43.482,232.990 43.305,232.322 42.699 C 232.127 42.522,231.884 42.377,231.783 42.377 C 231.681 42.377,231.598 42.310,231.598 42.228 C 231.598 42.146,231.039 41.672,230.355 41.175 C 229.671 40.677,228.669 39.853,228.129 39.343 C 227.589 38.833,227.009 38.333,226.839 38.231 C 226.362 37.945,222.592 34.473,221.138 32.980 C 218.086 29.846,215.831 27.372,214.232 25.405 C 213.415 24.400,212.991 23.887,212.610 23.444 C 212.413 23.215,212.252 22.950,212.252 22.856 C 212.252 22.761,212.106 22.575,211.927 22.443 C 211.748 22.310,211.467 21.994,211.303 21.741 C 211.139 21.488,210.831 21.073,210.619 20.820 C 210.033 20.122,209.970 20.031,209.688 19.484 C 209.544 19.205,209.360 18.977,209.278 18.977 C 209.196 18.977,208.992 18.708,208.823 18.379 C 208.654 18.049,208.319 17.531,208.078 17.227 C 207.400 16.370,207.392 16.359,206.812 15.423 C 206.511 14.938,205.871 13.944,205.389 13.214 C 204.908 12.485,204.514 11.820,204.514 11.735 C 204.514 11.651,204.275 11.235,203.984 10.811 C 203.368 9.915,203.035 9.331,201.920 7.186 C 201.472 6.324,201.062 5.578,201.009 5.527 C 200.955 5.477,200.754 5.079,200.562 4.643 C 200.082 3.555,200.004 3.551,199.438 4.591 M84.846 113.981 C 80.880 114.344,79.189 114.611,75.633 115.436 C 75.025 115.577,74.321 115.733,74.067 115.783 C 72.574 116.080,67.982 117.632,66.370 118.385 C 65.835 118.635,65.343 118.839,65.276 118.839 C 64.998 118.839,59.632 121.633,58.456 122.391 C 58.027 122.667,57.592 122.893,57.489 122.893 C 57.385 122.893,57.301 122.962,57.301 123.046 C 57.301 123.130,57.073 123.316,56.794 123.459 C 56.515 123.601,55.776 124.092,55.150 124.549 C 53.530 125.733,53.270 125.911,50.686 127.616 C 49.409 128.458,48.265 129.232,48.142 129.336 C 48.020 129.440,47.881 129.526,47.834 129.526 C 47.788 129.526,47.100 129.926,46.307 130.415 C 45.513 130.904,44.118 131.708,43.206 132.200 C 42.294 132.693,41.050 133.370,40.442 133.705 C 39.834 134.040,39.047 134.448,38.692 134.611 C 38.337 134.775,37.290 135.263,36.365 135.697 C 33.577 137.005,28.661 139.080,27.637 139.381 C 27.384 139.455,26.928 139.620,26.624 139.746 C 25.980 140.015,22.700 141.133,22.294 141.222 C 21.384 141.422,20.890 141.568,20.728 141.685 C 20.626 141.757,20.129 141.919,19.622 142.045 C 19.116 142.170,18.577 142.303,18.425 142.341 C 18.273 142.378,17.651 142.538,17.043 142.695 C 16.435 142.853,15.813 143.013,15.660 143.052 C 15.508 143.090,15.010 143.222,14.555 143.346 C 14.099 143.470,13.478 143.607,13.174 143.651 C 12.870 143.696,12.206 143.847,11.700 143.987 C 11.193 144.128,10.281 144.298,9.673 144.367 C 9.065 144.435,8.492 144.536,8.401 144.591 C 8.218 144.700,7.923 144.751,6.541 144.912 C 5.045 145.085,5.045 145.090,6.484 146.538 C 7.225 147.284,8.369 148.495,9.028 149.231 C 9.687 149.967,10.537 150.902,10.917 151.308 C 11.297 151.715,11.608 152.066,11.608 152.087 C 11.608 152.108,12.022 152.575,12.528 153.124 C 13.034 153.673,13.448 154.190,13.449 154.273 C 13.450 154.356,13.739 154.729,14.093 155.102 C 14.447 155.475,14.737 155.837,14.738 155.906 C 14.739 155.975,14.844 156.140,14.973 156.274 C 15.101 156.408,15.552 156.974,15.975 157.531 C 16.398 158.088,16.874 158.690,17.032 158.867 C 17.190 159.044,17.319 159.229,17.319 159.277 C 17.319 159.325,17.920 160.194,18.655 161.208 C 19.897 162.922,21.553 165.457,21.723 165.904 C 21.763 166.011,21.852 166.140,21.919 166.191 C 22.091 166.319,24.505 170.360,24.505 170.519 C 24.505 170.590,24.676 170.889,24.886 171.183 C 25.095 171.477,25.222 171.718,25.167 171.718 C 25.112 171.718,25.302 172.116,25.589 172.603 C 26.089 173.451,27.926 177.163,28.707 178.904 C 30.123 182.058,31.261 184.819,31.709 186.181 C 31.908 186.789,32.147 187.453,32.239 187.655 C 32.330 187.858,32.616 188.646,32.874 189.406 C 33.326 190.737,34.089 192.864,34.576 194.150 C 34.737 194.573,34.737 194.575,34.904 195.164 C 34.982 195.442,35.121 195.670,35.211 195.670 C 35.301 195.670,35.375 195.756,35.375 195.860 C 35.375 195.965,35.487 196.317,35.623 196.643 C 35.759 196.969,35.877 197.310,35.884 197.400 C 35.891 197.490,35.970 197.614,36.060 197.676 C 36.217 197.784,36.774 198.878,36.868 199.263 C 36.893 199.364,37.148 199.845,37.434 200.331 C 37.720 200.816,37.955 201.293,37.955 201.390 C 37.955 201.487,38.021 201.566,38.102 201.566 C 38.184 201.566,38.433 201.918,38.657 202.349 C 39.187 203.368,39.807 204.398,39.961 204.514 C 40.028 204.565,40.495 205.228,41.000 205.988 C 41.504 206.748,41.965 207.411,42.025 207.462 C 42.085 207.513,42.431 207.945,42.793 208.424 C 44.438 210.595,48.726 215.099,50.472 216.490 C 50.917 216.845,51.620 217.430,52.034 217.790 C 53.279 218.872,58.110 222.379,60.265 223.764 C 60.426 223.867,60.975 224.242,61.485 224.597 C 63.675 226.119,68.715 229.364,70.059 230.117 C 70.744 230.502,73.985 232.468,74.896 233.053 C 75.819 233.644,76.214 233.868,77.936 234.774 C 78.696 235.173,79.463 235.630,79.641 235.789 C 79.818 235.948,79.963 236.017,79.963 235.944 C 79.963 235.871,80.191 235.969,80.470 236.162 C 80.749 236.355,81.101 236.569,81.253 236.638 C 81.405 236.706,82.110 237.085,82.819 237.479 C 83.528 237.874,85.311 238.803,86.780 239.544 C 88.250 240.286,89.501 240.918,89.562 240.949 C 89.622 240.981,89.893 240.672,90.163 240.264 C 90.433 239.855,90.608 239.521,90.551 239.521 C 90.494 239.521,90.685 239.169,90.975 238.738 C 91.266 238.307,91.645 237.665,91.818 237.310 C 91.992 236.955,92.209 236.541,92.301 236.389 C 93.604 234.239,94.508 232.658,94.599 232.371 C 94.662 232.175,94.876 231.867,95.076 231.686 C 95.276 231.505,95.440 231.283,95.440 231.192 C 95.440 231.101,95.647 230.721,95.901 230.348 C 96.509 229.453,96.491 229.371,95.577 228.851 C 95.147 228.606,93.479 227.528,91.871 226.456 C 90.262 225.383,88.646 224.306,88.278 224.062 C 87.910 223.819,87.582 223.550,87.548 223.464 C 87.514 223.378,87.369 223.307,87.226 223.307 C 87.082 223.307,86.965 223.240,86.965 223.157 C 86.965 223.074,86.654 222.830,86.274 222.614 C 85.894 222.398,85.008 221.761,84.306 221.198 C 83.604 220.635,82.977 220.175,82.912 220.175 C 82.670 220.175,78.305 215.629,78.305 215.377 C 78.305 215.311,78.130 215.058,77.917 214.814 C 77.391 214.214,76.462 212.862,76.462 212.697 C 76.462 212.624,76.251 212.286,75.992 211.947 C 75.734 211.608,75.589 211.330,75.670 211.328 C 75.751 211.327,75.731 211.265,75.625 211.190 C 75.298 210.961,73.365 206.742,73.206 205.910 C 73.169 205.716,73.065 205.467,72.976 205.358 C 72.790 205.132,71.769 201.622,71.603 200.645 C 71.543 200.290,71.372 199.397,71.223 198.661 C 70.955 197.337,70.881 196.800,70.568 193.920 C 70.408 192.440,70.462 184.405,70.644 182.681 C 70.852 180.715,71.735 175.213,71.931 174.666 C 71.985 174.514,72.067 174.182,72.113 173.929 C 72.159 173.676,72.332 172.951,72.497 172.318 C 72.663 171.685,72.826 171.022,72.861 170.844 C 72.895 170.666,73.222 169.618,73.587 168.514 C 73.953 167.411,74.251 166.428,74.251 166.331 C 74.251 166.234,74.366 165.893,74.507 165.574 C 74.648 165.254,75.076 164.164,75.460 163.151 C 75.843 162.137,76.226 161.229,76.310 161.133 C 76.394 161.037,76.462 160.809,76.462 160.626 C 76.462 160.444,76.545 160.295,76.647 160.295 C 76.748 160.295,76.831 160.192,76.831 160.065 C 76.831 159.939,77.474 158.572,78.259 157.026 C 80.095 153.413,80.240 153.148,80.591 152.760 C 80.752 152.581,80.884 152.351,80.884 152.248 C 80.884 152.145,81.087 151.825,81.335 151.537 C 81.582 151.249,81.743 150.946,81.692 150.864 C 81.641 150.781,81.687 150.714,81.795 150.714 C 81.902 150.714,81.990 150.606,81.990 150.474 C 81.990 150.343,82.384 149.739,82.865 149.132 C 83.346 148.526,84.025 147.618,84.373 147.115 C 85.686 145.217,89.099 141.493,91.217 139.648 C 91.850 139.097,92.482 138.533,92.621 138.396 C 93.153 137.869,96.837 135.237,97.042 135.237 C 97.092 135.237,97.371 135.068,97.661 134.862 C 98.263 134.433,101.476 132.833,102.441 132.481 C 102.796 132.352,103.360 132.126,103.694 131.978 C 104.945 131.427,108.733 130.560,111.009 130.304 C 112.920 130.089,121.834 130.221,126.393 130.532 C 128.731 130.692,133.096 131.067,135.053 131.276 C 136.856 131.469,137.872 131.586,138.250 131.644 C 138.468 131.677,139.143 131.764,139.751 131.837 C 140.359 131.910,141.043 131.993,141.271 132.021 C 141.692 132.073,142.960 132.278,143.613 132.400 C 144.032 132.478,144.896 132.600,146.200 132.765 C 146.707 132.829,147.174 132.913,147.238 132.951 C 147.302 132.990,147.675 133.070,148.067 133.129 C 148.860 133.249,152.878 134.012,154.307 134.313 C 154.813 134.420,155.394 134.542,155.596 134.583 C 157.613 134.990,163.598 136.425,164.348 136.680 C 164.611 136.770,165.240 136.941,168.402 137.785 C 169.162 137.988,170.198 138.296,170.705 138.469 C 171.211 138.642,171.709 138.798,171.810 138.816 C 172.015 138.852,175.151 139.819,175.587 139.981 C 175.739 140.037,175.976 140.106,176.114 140.134 C 176.251 140.162,176.790 140.348,177.311 140.547 C 178.420 140.970,180.061 141.572,180.193 141.603 C 180.244 141.616,180.410 141.677,180.562 141.741 C 180.714 141.804,181.377 142.036,182.036 142.256 C 182.695 142.476,183.337 142.738,183.464 142.838 C 183.591 142.939,183.694 142.967,183.694 142.901 C 183.694 142.836,183.951 142.915,184.264 143.077 C 184.825 143.367,184.857 143.359,186.153 142.594 C 186.878 142.166,188.093 141.485,188.853 141.080 C 189.613 140.675,190.442 140.210,190.696 140.047 C 190.949 139.885,191.965 139.339,192.953 138.835 C 193.941 138.331,194.749 137.850,194.749 137.766 C 194.749 137.641,193.601 137.042,193.275 136.997 C 193.224 136.990,192.520 136.664,191.709 136.273 C 190.898 135.881,189.986 135.450,189.682 135.315 C 189.378 135.179,188.568 134.816,187.881 134.508 C 187.195 134.200,186.560 133.947,186.472 133.947 C 186.383 133.947,185.618 133.629,184.771 133.240 C 183.924 132.850,182.900 132.425,182.496 132.295 C 182.091 132.164,181.552 131.950,181.299 131.818 C 181.046 131.686,180.051 131.273,179.088 130.900 C 178.125 130.527,177.151 130.148,176.923 130.058 C 176.278 129.803,175.736 129.601,175.035 129.352 C 170.957 127.909,168.823 127.175,166.651 126.465 C 165.233 126.002,163.906 125.551,163.703 125.463 C 163.175 125.234,160.094 124.310,159.612 124.235 C 159.389 124.200,158.850 124.041,158.415 123.882 C 157.538 123.560,157.419 123.525,154.399 122.713 C 152.757 122.272,148.274 121.116,146.937 120.789 C 146.836 120.764,146.421 120.652,146.016 120.541 C 145.610 120.429,144.958 120.290,144.566 120.231 C 144.174 120.172,143.792 120.086,143.716 120.039 C 143.541 119.931,139.218 119.013,138.389 118.908 C 138.045 118.865,137.423 118.744,137.007 118.639 C 136.099 118.411,134.177 118.041,132.289 117.732 C 131.529 117.607,130.617 117.437,130.263 117.354 C 129.908 117.271,128.415 117.029,126.946 116.816 C 125.477 116.603,124.067 116.392,123.814 116.346 C 123.561 116.300,122.980 116.218,122.524 116.163 C 122.068 116.108,121.156 115.987,120.497 115.894 C 119.441 115.745,118.622 115.648,116.536 115.425 C 116.232 115.392,115.419 115.313,114.729 115.248 C 114.040 115.182,113.335 115.103,113.163 115.071 C 112.992 115.039,112.188 114.959,111.377 114.893 C 110.567 114.827,109.406 114.730,108.797 114.678 C 107.198 114.539,105.921 114.451,103.731 114.328 C 102.667 114.269,101.175 114.181,100.415 114.133 C 98.608 114.018,85.799 113.894,84.846 113.981 M303.770 113.974 C 303.748 113.992,302.280 114.067,300.507 114.140 C 298.733 114.213,296.951 114.297,296.545 114.325 C 296.140 114.354,294.731 114.437,293.413 114.509 C 292.096 114.581,290.877 114.668,290.706 114.701 C 290.534 114.734,289.829 114.810,289.140 114.871 C 285.909 115.156,284.478 115.296,283.464 115.428 C 283.160 115.468,282.372 115.552,281.713 115.615 C 281.055 115.678,280.392 115.763,280.240 115.803 C 280.088 115.843,279.507 115.924,278.950 115.984 C 278.392 116.044,277.356 116.180,276.647 116.287 C 275.937 116.393,275.150 116.508,274.896 116.542 C 274.374 116.611,272.917 116.845,272.501 116.927 C 272.349 116.956,271.810 117.034,271.304 117.099 C 270.062 117.258,270.046 117.277,270.196 118.356 C 270.268 118.875,270.358 119.587,270.395 119.937 C 270.463 120.577,270.780 123.346,270.923 124.551 C 270.966 124.906,271.043 125.735,271.095 126.393 C 271.148 127.052,271.248 128.286,271.319 129.135 L 271.448 130.680 273.034 130.566 C 279.665 130.091,288.576 130.066,290.557 130.516 C 290.811 130.574,291.267 130.656,291.571 130.700 C 295.379 131.243,301.875 134.172,305.504 136.982 C 305.770 137.188,306.219 137.522,306.501 137.725 C 308.763 139.347,311.495 142.048,314.443 145.577 C 315.693 147.073,315.799 147.214,315.799 147.384 C 315.799 147.476,315.873 147.579,315.964 147.612 C 316.205 147.703,319.115 152.055,319.115 152.326 C 319.116 152.453,319.199 152.556,319.300 152.556 C 319.401 152.556,319.484 152.675,319.484 152.820 C 319.484 152.964,319.591 153.192,319.722 153.326 C 319.853 153.460,320.134 153.901,320.346 154.307 C 321.768 157.021,322.764 159.003,322.984 159.558 C 323.125 159.912,323.287 160.244,323.345 160.295 C 323.626 160.543,326.080 167.219,326.662 169.323 C 326.789 169.779,327.003 170.484,327.139 170.889 C 327.275 171.294,327.519 172.282,327.681 173.084 C 327.843 173.886,328.017 174.610,328.068 174.692 C 328.205 174.915,329.082 180.182,329.336 182.312 C 329.523 183.879,329.596 192.936,329.431 194.104 C 329.345 194.712,329.231 195.583,329.176 196.039 C 328.945 197.967,328.061 202.542,327.855 202.876 C 327.800 202.965,327.724 203.184,327.686 203.362 C 327.364 204.885,325.436 209.538,324.603 210.799 C 324.428 211.064,324.338 211.333,324.403 211.398 C 324.467 211.463,324.429 211.515,324.318 211.515 C 324.206 211.515,324.063 211.678,324.000 211.878 C 323.878 212.262,322.342 214.573,321.936 214.983 C 321.804 215.117,321.695 215.299,321.695 215.387 C 321.695 215.582,317.426 219.882,316.531 220.588 C 315.766 221.192,315.585 221.327,313.662 222.729 C 312.841 223.328,311.971 223.923,311.727 224.053 C 311.484 224.182,310.995 224.517,310.640 224.796 C 310.286 225.075,309.734 225.456,309.414 225.641 C 309.094 225.827,308.099 226.474,307.203 227.078 C 306.307 227.683,305.511 228.180,305.435 228.184 C 305.359 228.187,305.023 228.409,304.687 228.676 C 304.352 228.944,303.668 229.384,303.167 229.654 C 302.009 230.278,301.544 230.557,301.428 230.696 C 301.225 230.939,299.805 231.756,299.724 231.676 C 299.677 231.628,299.533 231.716,299.405 231.870 C 299.277 232.025,299.108 232.151,299.029 232.151 C 298.950 232.151,298.336 232.486,297.663 232.894 C 294.232 234.979,284.833 239.765,280.147 241.815 C 279.742 241.992,279.079 242.287,278.673 242.471 C 276.967 243.246,275.676 243.773,275.449 243.789 C 275.398 243.792,275.191 243.886,274.988 243.998 C 274.786 244.110,274.537 244.222,274.436 244.246 C 274.244 244.293,270.425 245.829,269.461 246.247 C 269.157 246.379,267.996 246.788,266.882 247.156 C 265.767 247.524,264.689 247.904,264.486 248.000 C 264.022 248.220,256.849 250.548,256.264 250.668 C 256.099 250.702,255.601 250.850,255.158 250.997 C 254.715 251.144,253.497 251.500,252.451 251.788 L 250.549 252.312 249.991 253.517 C 249.684 254.179,249.198 255.219,248.912 255.827 C 248.195 257.349,247.196 259.539,246.790 260.479 C 246.604 260.910,246.371 261.262,246.272 261.262 C 246.173 261.262,246.145 261.314,246.209 261.378 C 246.273 261.442,246.204 261.668,246.055 261.880 C 245.395 262.822,245.680 262.799,252.326 261.371 C 255.476 260.695,257.335 260.274,258.084 260.068 C 258.261 260.019,258.821 259.886,259.327 259.773 C 259.834 259.659,261.451 259.232,262.920 258.823 C 264.390 258.415,266.297 257.894,267.158 257.667 C 268.019 257.440,269.719 256.947,270.935 256.571 C 272.151 256.196,273.229 255.870,273.330 255.848 C 273.851 255.732,280.779 253.467,281.253 253.257 C 281.797 253.016,282.550 252.753,282.911 252.679 C 283.012 252.659,283.551 252.459,284.109 252.235 C 284.666 252.012,285.288 251.798,285.491 251.759 C 285.693 251.721,286.688 251.349,287.702 250.932 C 288.715 250.516,289.668 250.147,289.820 250.112 C 290.368 249.986,294.676 248.205,296.872 247.195 C 297.457 246.927,298.007 246.707,298.095 246.707 C 298.182 246.707,299.135 246.292,300.212 245.785 C 301.289 245.279,302.205 244.864,302.247 244.864 C 302.697 244.864,315.966 238.245,319.392 236.312 C 319.899 236.026,320.852 235.498,321.511 235.138 C 322.170 234.778,322.736 234.415,322.770 234.331 C 322.804 234.247,322.897 234.178,322.978 234.178 C 323.228 234.178,329.634 230.413,331.000 229.463 C 331.304 229.252,331.677 229.021,331.829 228.950 C 332.488 228.641,335.112 226.932,337.968 224.952 C 338.761 224.402,339.549 223.868,339.719 223.766 C 340.471 223.314,343.552 221.188,343.772 220.970 C 343.906 220.837,344.077 220.728,344.152 220.728 C 344.227 220.728,344.449 220.580,344.645 220.400 C 344.842 220.220,345.292 219.872,345.647 219.627 C 346.002 219.381,346.358 219.072,346.439 218.941 C 346.520 218.809,346.689 218.701,346.813 218.701 C 346.938 218.701,347.328 218.430,347.679 218.099 C 348.031 217.768,348.733 217.168,349.240 216.766 C 351.213 215.197,355.744 210.386,357.915 207.554 C 358.550 206.726,359.834 204.882,359.834 204.799 C 359.834 204.750,360.153 204.231,360.542 203.645 C 361.501 202.202,361.942 201.492,361.949 201.382 C 361.952 201.331,362.171 200.917,362.435 200.461 C 362.700 200.005,363.114 199.196,363.355 198.664 C 363.596 198.132,363.856 197.697,363.933 197.697 C 364.009 197.697,364.072 197.589,364.072 197.457 C 364.072 197.325,364.271 196.806,364.514 196.305 C 365.194 194.905,365.719 193.643,365.621 193.643 C 365.573 193.643,365.634 193.457,365.757 193.229 C 366.011 192.758,367.720 187.882,367.862 187.224 C 367.913 186.987,368.066 186.614,368.202 186.395 C 368.338 186.176,368.505 185.760,368.573 185.470 C 368.640 185.180,368.847 184.600,369.031 184.180 C 369.709 182.643,370.302 181.196,370.432 180.759 C 370.506 180.513,370.722 180.056,370.911 179.746 C 371.101 179.435,371.256 179.035,371.257 178.858 C 371.257 178.680,371.340 178.535,371.442 178.535 C 371.543 178.535,371.626 178.442,371.626 178.329 C 371.626 178.065,374.374 172.454,374.684 172.087 C 374.812 171.935,374.931 171.727,374.949 171.626 C 374.966 171.525,375.200 171.069,375.468 170.613 C 376.074 169.580,376.505 168.814,376.816 168.217 C 376.949 167.964,377.162 167.647,377.289 167.513 C 377.417 167.379,377.522 167.158,377.522 167.022 C 377.522 166.886,377.589 166.747,377.671 166.713 C 377.753 166.679,378.090 166.195,378.420 165.638 C 378.750 165.081,379.219 164.334,379.463 163.980 C 379.706 163.625,380.077 163.086,380.287 162.782 C 380.497 162.478,380.933 161.815,381.256 161.308 C 381.580 160.801,382.033 160.180,382.263 159.928 C 382.493 159.676,382.681 159.372,382.681 159.253 C 382.681 159.133,382.746 159.008,382.825 158.974 C 382.905 158.941,383.380 158.374,383.882 157.715 C 384.998 156.251,384.929 156.339,386.583 154.308 C 387.325 153.397,388.056 152.524,388.208 152.369 C 388.360 152.213,388.775 151.722,389.129 151.277 C 389.484 150.833,390.879 149.328,392.230 147.934 C 395.089 144.982,395.012 145.135,393.725 144.950 C 393.173 144.871,391.479 144.563,389.959 144.266 C 388.439 143.970,386.988 143.690,386.734 143.646 C 385.839 143.489,379.636 141.864,379.272 141.692 C 379.070 141.596,378.531 141.424,378.075 141.311 C 377.619 141.198,376.665 140.897,375.956 140.642 C 375.246 140.388,374.542 140.150,374.390 140.113 C 373.362 139.867,367.415 137.453,364.212 135.983 C 363.529 135.669,362.908 135.401,362.830 135.386 C 362.753 135.372,362.317 135.162,361.861 134.920 C 359.719 133.782,358.413 133.081,357.992 132.841 C 357.738 132.697,357.469 132.597,357.393 132.619 C 357.317 132.640,357.255 132.575,357.255 132.474 C 357.255 132.372,357.166 132.289,357.059 132.289 C 356.855 132.289,353.381 130.241,351.451 128.983 C 350.843 128.587,349.952 128.036,349.470 127.759 C 348.989 127.482,348.595 127.186,348.595 127.101 C 348.595 127.016,348.514 126.946,348.414 126.946 C 348.260 126.946,346.208 125.568,345.002 124.655 C 344.082 123.957,342.743 123.058,342.239 122.799 C 341.668 122.505,341.461 122.381,340.212 121.588 C 339.579 121.185,336.240 119.519,334.500 118.738 C 332.127 117.672,327.945 116.226,325.749 115.712 C 319.388 114.225,315.481 113.818,308.284 113.894 C 305.822 113.920,303.791 113.956,303.770 113.974 M246.614 122.448 C 245.804 122.690,244.892 122.932,244.588 122.988 C 244.284 123.043,243.538 123.244,242.930 123.435 C 242.322 123.625,240.953 124.042,239.889 124.361 C 237.036 125.218,230.331 127.414,228.006 128.254 C 226.891 128.656,225.772 129.057,225.518 129.145 C 225.265 129.232,224.436 129.561,223.676 129.875 C 222.916 130.189,222.211 130.446,222.110 130.447 C 222.008 130.448,221.718 130.555,221.465 130.685 C 221.211 130.815,220.590 131.074,220.083 131.260 C 219.576 131.447,218.913 131.704,218.609 131.832 C 218.305 131.960,217.707 132.196,217.281 132.357 C 216.494 132.653,215.622 133.032,213.634 133.941 C 213.026 134.220,212.322 134.508,212.068 134.583 C 211.653 134.706,208.949 135.931,208.155 136.356 C 207.979 136.450,207.710 136.527,207.557 136.527 C 207.403 136.527,207.278 136.610,207.278 136.711 C 207.278 136.813,207.181 136.895,207.063 136.895 C 206.623 136.895,195.367 142.511,192.237 144.292 C 191.817 144.531,190.615 145.202,189.565 145.783 C 186.976 147.217,186.572 147.460,186.415 147.674 C 186.340 147.775,186.278 147.783,186.276 147.691 C 186.275 147.600,186.129 147.650,185.951 147.803 C 185.774 147.956,184.427 148.805,182.957 149.689 C 181.488 150.573,179.664 151.704,178.904 152.202 C 178.144 152.701,177.316 153.197,177.065 153.305 C 176.814 153.413,176.565 153.568,176.512 153.650 C 176.460 153.732,175.902 154.120,175.274 154.513 C 173.797 155.438,170.916 157.376,170.797 157.526 C 170.746 157.590,170.332 157.893,169.876 158.200 C 169.420 158.507,168.715 158.980,168.310 159.253 C 167.235 159.974,166.777 160.306,165.793 161.078 C 165.308 161.458,164.862 161.769,164.801 161.769 C 164.740 161.769,164.582 161.872,164.450 161.999 C 164.317 162.126,164.020 162.354,163.789 162.506 C 163.558 162.658,163.112 162.992,162.799 163.249 C 162.486 163.505,161.732 164.080,161.124 164.526 C 160.516 164.972,159.977 165.384,159.926 165.442 C 159.876 165.500,159.378 165.898,158.821 166.325 C 158.263 166.752,157.351 167.475,156.794 167.931 C 156.237 168.387,155.408 169.029,154.952 169.358 C 154.496 169.686,153.874 170.180,153.570 170.456 C 153.266 170.731,152.395 171.476,151.635 172.112 C 150.875 172.748,150.187 173.375,150.106 173.506 C 150.025 173.638,149.888 173.745,149.801 173.745 C 149.636 173.745,148.593 174.605,147.753 175.434 C 147.333 175.848,147.266 176.051,147.323 176.724 C 147.461 178.351,147.788 181.777,147.856 182.312 C 147.895 182.616,147.983 183.570,148.052 184.431 C 148.221 186.540,148.114 186.553,150.645 184.120 C 151.844 182.967,154.333 180.663,155.583 179.549 C 156.195 179.003,158.424 177.074,158.821 176.748 C 159.074 176.539,159.820 175.922,160.479 175.377 C 163.489 172.884,165.591 171.199,166.096 170.874 C 166.398 170.680,166.778 170.396,166.940 170.244 C 167.103 170.092,167.425 169.843,167.657 169.691 C 167.889 169.539,169.126 168.642,170.405 167.697 C 173.580 165.353,174.872 164.447,176.140 163.678 C 176.596 163.401,177.271 162.942,177.641 162.656 C 178.010 162.371,178.404 162.137,178.516 162.137 C 178.628 162.137,178.719 162.054,178.719 161.953 C 178.719 161.852,178.817 161.769,178.935 161.769 C 179.054 161.769,179.310 161.625,179.505 161.449 C 179.700 161.272,180.223 160.920,180.668 160.665 C 181.113 160.411,182.784 159.408,184.382 158.436 C 188.292 156.058,189.028 155.636,192.766 153.632 C 195.880 151.963,200.232 149.793,200.466 149.793 C 200.564 149.793,200.645 149.710,200.645 149.608 C 200.645 149.507,200.742 149.424,200.861 149.424 C 200.980 149.424,201.747 149.100,202.565 148.704 C 205.255 147.402,206.920 146.661,207.156 146.661 C 207.284 146.661,207.467 146.588,207.563 146.499 C 207.716 146.358,209.430 145.595,210.502 145.191 C 211.007 145.000,211.640 144.737,212.621 144.309 C 213.077 144.110,213.782 143.842,214.187 143.714 C 214.592 143.585,215.040 143.387,215.183 143.274 C 215.325 143.161,215.472 143.094,215.510 143.127 C 215.602 143.206,217.272 142.588,217.494 142.392 C 217.591 142.308,217.855 142.239,218.082 142.239 C 218.309 142.239,218.539 142.168,218.592 142.081 C 218.646 141.995,219.169 141.781,219.755 141.607 C 220.341 141.432,220.986 141.219,221.188 141.134 C 221.391 141.048,222.635 140.628,223.952 140.200 C 225.269 139.772,226.513 139.356,226.716 139.275 C 227.263 139.056,230.330 138.157,230.856 138.062 C 231.106 138.016,231.396 137.912,231.500 137.829 C 231.605 137.746,231.981 137.627,232.335 137.564 C 232.690 137.502,233.063 137.422,233.164 137.388 C 233.266 137.354,233.722 137.225,234.178 137.102 C 234.634 136.979,235.421 136.758,235.928 136.612 C 237.302 136.214,243.439 134.762,245.233 134.410 C 246.094 134.241,247.006 134.055,247.259 133.997 C 247.921 133.843,248.071 133.815,249.506 133.573 L 250.801 133.355 250.689 132.684 C 250.627 132.315,250.536 131.764,250.486 131.460 C 250.179 129.601,249.736 127.314,249.182 124.735 C 249.019 123.975,248.855 123.123,248.818 122.842 C 248.683 121.826,248.697 121.828,246.614 122.448 M132.751 135.603 C 132.253 136.409,132.247 160.422,132.744 165.454 C 132.779 165.808,132.861 167.052,132.927 168.217 C 132.993 169.383,133.078 170.461,133.117 170.613 C 133.155 170.765,133.239 171.635,133.303 172.547 C 133.503 175.383,134.138 180.850,134.758 185.076 C 134.907 186.089,135.080 187.327,135.143 187.827 C 135.205 188.327,135.289 188.788,135.330 188.853 C 135.370 188.918,135.455 189.462,135.520 190.061 C 135.585 190.661,135.665 191.196,135.699 191.250 C 135.732 191.304,135.812 191.720,135.877 192.173 C 135.941 192.627,136.110 193.620,136.253 194.380 C 136.588 196.168,137.458 200.656,137.539 201.013 C 137.574 201.165,137.699 201.704,137.819 202.211 C 137.938 202.718,138.073 203.381,138.119 203.685 C 138.164 203.989,138.276 204.445,138.366 204.698 C 138.457 204.952,138.585 205.449,138.651 205.804 C 138.855 206.897,140.399 213.157,140.586 213.649 C 140.683 213.905,140.806 214.379,140.860 214.703 C 140.913 215.027,141.032 215.500,141.123 215.753 C 141.214 216.006,141.594 217.292,141.968 218.609 C 143.062 222.470,144.787 227.952,145.738 230.585 C 146.031 231.396,146.530 232.805,146.847 233.717 C 147.859 236.626,149.384 240.603,150.746 243.889 C 150.864 244.172,150.971 244.445,150.986 244.496 C 151.001 244.546,151.153 244.909,151.324 245.301 C 151.495 245.694,151.635 246.039,151.635 246.069 C 151.635 246.099,151.815 246.524,152.035 247.014 C 152.441 247.919,152.492 248.056,152.533 248.340 C 152.546 248.428,152.950 248.589,153.432 248.698 C 153.913 248.807,154.846 249.025,155.504 249.183 C 158.229 249.838,159.416 250.102,160.571 250.311 C 160.875 250.366,161.479 250.500,161.914 250.609 C 162.944 250.867,163.000 250.774,162.451 249.713 C 162.199 249.225,161.805 248.411,161.576 247.904 C 161.347 247.398,160.831 246.278,160.430 245.417 C 159.052 242.464,158.637 241.538,158.637 241.423 C 158.637 241.360,158.436 240.885,158.190 240.368 C 157.387 238.680,156.794 237.302,156.794 237.126 C 156.794 237.030,156.580 236.473,156.318 235.887 C 156.057 235.302,155.811 234.698,155.773 234.546 C 155.735 234.394,155.363 233.399,154.947 232.335 C 154.532 231.271,154.161 230.261,154.124 230.090 C 154.087 229.920,153.953 229.588,153.828 229.353 C 153.702 229.119,153.604 228.885,153.609 228.835 C 153.614 228.784,153.545 228.551,153.456 228.316 C 153.366 228.081,153.293 227.784,153.293 227.656 C 153.293 227.527,153.231 227.360,153.155 227.284 C 153.079 227.208,153.007 227.070,152.994 226.977 C 152.981 226.884,152.950 226.766,152.925 226.716 C 152.875 226.616,152.874 226.614,152.654 225.795 C 152.572 225.491,152.457 225.159,152.398 225.058 C 152.339 224.956,152.274 224.790,152.255 224.689 C 152.235 224.588,152.016 223.883,151.767 223.123 C 151.518 222.363,151.093 220.995,150.822 220.083 C 150.551 219.171,150.236 218.135,150.123 217.780 C 149.679 216.389,149.029 213.849,147.199 206.357 C 147.088 205.901,146.958 205.320,146.910 205.067 C 146.862 204.813,146.738 204.233,146.634 203.777 C 146.530 203.321,146.408 202.741,146.364 202.487 C 146.319 202.234,146.160 201.363,146.010 200.553 C 145.860 199.742,145.608 198.374,145.450 197.513 C 145.292 196.651,145.091 195.615,145.002 195.210 C 144.914 194.804,144.789 193.975,144.724 193.367 C 144.660 192.759,144.524 191.723,144.421 191.064 C 144.319 190.405,144.204 189.618,144.167 189.314 C 144.129 189.010,144.053 188.429,143.997 188.024 C 143.942 187.619,143.856 186.914,143.805 186.458 C 143.755 186.002,143.627 184.924,143.521 184.063 C 143.415 183.201,143.300 182.082,143.266 181.575 C 143.206 180.691,143.000 178.230,142.873 176.877 C 142.405 171.888,142.407 152.164,142.876 149.638 C 142.907 149.470,142.987 148.669,143.053 147.858 C 143.119 147.047,143.210 146.053,143.254 145.647 C 143.299 145.242,143.378 144.454,143.430 143.897 C 143.482 143.339,143.612 142.137,143.718 141.225 C 143.825 140.313,143.961 138.979,144.021 138.261 L 144.130 136.954 142.401 136.720 C 141.450 136.591,140.507 136.452,140.304 136.412 C 140.101 136.372,139.521 136.294,139.014 136.238 C 138.508 136.183,137.471 136.057,136.711 135.959 C 135.951 135.861,134.832 135.732,134.224 135.673 C 133.616 135.614,133.062 135.532,132.993 135.491 C 132.924 135.449,132.815 135.500,132.751 135.603 M213.752 148.691 C 213.311 148.892,212.874 149.056,212.781 149.056 C 212.689 149.056,211.902 149.387,211.033 149.793 C 210.163 150.198,209.414 150.530,209.367 150.530 C 209.279 150.530,207.922 151.129,206.209 151.924 C 205.059 152.458,205.072 152.504,206.580 153.277 C 208.425 154.223,209.204 154.664,209.325 154.829 C 209.387 154.914,209.470 154.962,209.509 154.936 C 209.549 154.910,209.932 155.110,210.360 155.381 C 210.789 155.651,211.191 155.873,211.253 155.873 C 211.315 155.873,211.607 156.044,211.902 156.254 C 212.196 156.463,212.437 156.584,212.437 156.521 C 212.437 156.458,212.706 156.606,213.035 156.850 C 213.365 157.093,213.767 157.339,213.930 157.396 C 214.092 157.452,214.797 157.859,215.496 158.300 C 216.195 158.741,216.994 159.218,217.273 159.361 C 217.552 159.503,217.780 159.689,217.780 159.773 C 217.780 159.857,217.857 159.926,217.951 159.926 C 218.045 159.926,218.622 160.258,219.232 160.663 C 219.842 161.069,220.428 161.400,220.535 161.400 C 220.641 161.400,220.728 161.483,220.728 161.585 C 220.728 161.686,220.820 161.769,220.932 161.769 C 221.045 161.769,221.687 162.166,222.360 162.652 C 223.033 163.138,223.915 163.735,224.321 163.978 C 224.726 164.222,225.099 164.471,225.150 164.532 C 225.200 164.594,225.573 164.845,225.979 165.091 C 226.384 165.337,226.840 165.639,226.992 165.761 C 227.725 166.349,229.032 167.296,229.110 167.296 C 229.159 167.296,229.345 167.415,229.523 167.560 C 229.702 167.704,230.553 168.342,231.414 168.977 C 232.865 170.046,233.865 170.825,234.546 171.414 C 234.698 171.546,235.154 171.894,235.560 172.188 C 236.521 172.887,241.156 176.641,241.668 177.138 C 241.887 177.349,242.592 177.987,243.235 178.554 C 246.636 181.559,246.809 181.715,248.549 183.345 C 252.083 186.654,255.942 190.570,259.696 194.657 C 260.608 195.650,261.438 196.554,261.541 196.665 C 261.644 196.777,262.385 197.655,263.187 198.618 C 263.990 199.581,264.756 200.435,264.889 200.516 C 265.022 200.597,265.131 200.751,265.131 200.858 C 265.131 200.965,265.339 201.215,265.592 201.415 C 265.845 201.614,266.053 201.875,266.053 201.996 C 266.053 202.116,266.218 202.318,266.421 202.445 C 266.624 202.571,266.789 202.763,266.789 202.871 C 266.789 202.978,266.897 203.174,267.029 203.306 C 267.161 203.438,267.555 203.896,267.905 204.323 C 268.254 204.750,268.726 205.320,268.954 205.590 C 269.182 205.860,269.369 206.134,269.369 206.201 C 269.369 206.267,269.638 206.645,269.968 207.041 C 270.297 207.437,270.774 208.032,271.027 208.364 C 271.281 208.696,271.591 209.079,271.718 209.215 C 271.845 209.351,271.948 209.541,271.948 209.637 C 271.948 209.733,272.075 209.917,272.229 210.045 C 272.383 210.173,273.145 211.199,273.923 212.324 C 274.700 213.450,275.436 214.473,275.559 214.597 C 275.681 214.721,275.972 215.135,276.204 215.518 C 276.437 215.901,276.673 216.255,276.729 216.306 C 276.786 216.357,276.942 216.613,277.078 216.877 C 277.213 217.140,277.524 217.588,277.768 217.873 C 278.013 218.157,278.213 218.454,278.213 218.532 C 278.213 218.611,278.321 218.784,278.452 218.918 C 278.584 219.052,279.019 219.701,279.420 220.359 C 279.820 221.018,280.210 221.585,280.286 221.618 C 280.362 221.652,280.424 221.762,280.424 221.861 C 280.424 221.961,280.652 222.391,280.930 222.816 C 281.554 223.768,281.668 223.955,282.745 225.795 C 283.219 226.605,283.806 227.582,284.049 227.965 C 284.608 228.848,285.115 229.741,285.850 231.138 C 286.170 231.746,286.589 232.492,286.781 232.796 C 286.972 233.100,287.144 233.373,287.162 233.403 C 287.214 233.488,288.571 232.843,289.129 232.467 C 289.408 232.279,289.636 232.179,289.636 232.243 C 289.636 232.308,289.864 232.200,290.143 232.003 C 290.421 231.807,291.354 231.277,292.216 230.825 C 293.077 230.373,294.205 229.741,294.723 229.419 C 295.241 229.098,295.720 228.835,295.787 228.835 C 295.854 228.835,296.239 228.616,296.644 228.348 L 297.379 227.862 296.916 227.255 C 296.661 226.921,296.452 226.581,296.451 226.498 C 296.450 226.415,296.181 226.006,295.853 225.588 C 295.524 225.170,294.883 224.233,294.427 223.505 C 293.479 221.992,288.627 215.106,287.342 213.450 C 286.870 212.842,286.137 211.889,285.713 211.331 C 285.289 210.774,284.837 210.208,284.709 210.073 C 284.580 209.939,284.386 209.662,284.277 209.459 C 284.168 209.255,283.926 208.909,283.739 208.690 C 283.410 208.304,281.436 205.915,280.819 205.155 C 280.652 204.950,280.153 204.307,279.710 203.727 C 279.267 203.146,278.832 202.672,278.743 202.672 C 278.654 202.672,278.581 202.592,278.581 202.496 C 278.581 202.399,278.395 202.123,278.167 201.883 C 277.939 201.643,277.626 201.287,277.472 201.092 C 276.911 200.380,275.031 198.187,274.555 197.690 C 274.287 197.409,273.746 196.819,273.354 196.378 C 270.057 192.680,270.048 192.670,264.364 186.902 C 261.318 183.811,257.127 179.764,255.569 178.411 C 255.123 178.023,254.294 177.280,253.726 176.759 C 253.159 176.238,252.415 175.575,252.073 175.285 C 251.731 174.995,251.192 174.523,250.875 174.236 C 250.559 173.949,249.926 173.414,249.470 173.048 C 249.014 172.682,248.464 172.212,248.247 172.004 C 248.030 171.796,247.539 171.377,247.155 171.073 C 246.771 170.769,246.319 170.396,246.151 170.244 C 245.983 170.092,245.719 169.885,245.564 169.784 C 245.409 169.682,244.463 168.937,243.461 168.128 C 242.459 167.319,241.515 166.557,241.363 166.435 C 241.211 166.313,240.714 165.913,240.258 165.546 C 238.971 164.510,238.905 164.460,238.415 164.139 C 238.162 163.974,237.748 163.664,237.494 163.452 C 237.241 163.239,236.951 162.998,236.849 162.915 C 236.748 162.832,236.126 162.399,235.468 161.953 C 234.809 161.507,234.104 160.988,233.902 160.801 C 233.700 160.613,233.119 160.196,232.612 159.873 C 232.105 159.551,231.488 159.103,231.240 158.877 C 230.992 158.652,230.556 158.371,230.272 158.253 C 229.988 158.135,229.756 157.974,229.756 157.895 C 229.756 157.815,229.370 157.524,228.898 157.248 C 228.426 156.971,227.308 156.238,226.413 155.618 C 224.847 154.533,223.421 153.585,222.783 153.204 C 222.615 153.104,221.759 152.544,220.881 151.960 C 220.002 151.376,219.234 150.898,219.173 150.898 C 219.112 150.898,218.712 150.671,218.283 150.394 C 217.854 150.116,217.296 149.786,217.043 149.660 C 216.512 149.396,216.034 149.098,215.408 148.641 C 214.857 148.239,214.742 148.242,213.752 148.691 M130.258 192.388 C 129.805 192.901,129.019 193.753,128.512 194.282 C 127.662 195.169,126.659 196.300,125.081 198.149 C 124.739 198.550,124.210 199.143,123.906 199.467 C 123.602 199.791,123.146 200.326,122.893 200.658 C 122.639 200.989,122.219 201.474,121.959 201.735 C 121.699 201.997,121.204 202.584,120.859 203.040 C 120.514 203.496,120.084 204.003,119.904 204.167 C 119.724 204.331,119.576 204.555,119.576 204.665 C 119.576 204.774,119.473 204.931,119.346 205.012 C 119.153 205.135,118.483 205.925,117.426 207.278 C 117.307 207.430,116.808 208.052,116.316 208.660 C 115.065 210.205,110.167 216.777,109.518 217.780 C 109.223 218.236,108.795 218.815,108.567 219.068 C 108.339 219.320,108.153 219.616,108.153 219.726 C 108.153 219.837,107.946 220.121,107.692 220.359 C 107.439 220.597,107.232 220.860,107.232 220.943 C 107.232 221.027,106.817 221.676,106.310 222.386 C 105.804 223.096,105.388 223.739,105.387 223.815 C 105.385 223.890,105.218 224.159,105.014 224.413 C 104.811 224.666,104.025 225.827,103.267 226.992 C 102.510 228.158,101.828 229.194,101.750 229.295 C 101.439 229.702,100.905 230.584,100.372 231.571 C 100.063 232.143,99.706 232.736,99.578 232.888 C 99.358 233.150,99.126 233.542,98.046 235.468 C 97.790 235.924,97.528 236.338,97.463 236.389 C 97.398 236.439,97.228 236.750,97.084 237.080 C 96.941 237.409,96.761 237.678,96.685 237.678 C 96.608 237.678,96.545 237.797,96.545 237.942 C 96.545 238.086,96.415 238.335,96.256 238.494 C 96.097 238.654,96.024 238.784,96.093 238.784 C 96.163 238.784,96.003 239.069,95.738 239.417 C 95.473 239.764,95.256 240.126,95.256 240.220 C 95.256 240.314,95.051 240.693,94.801 241.061 C 94.550 241.430,94.397 241.732,94.461 241.732 C 94.524 241.732,94.459 241.877,94.317 242.054 C 93.952 242.509,93.662 243.030,92.546 245.233 C 92.008 246.297,91.501 247.250,91.421 247.351 C 91.174 247.664,87.886 254.434,87.886 254.629 C 87.886 254.731,87.803 254.813,87.702 254.813 C 87.600 254.813,87.536 254.876,87.558 254.952 C 87.581 255.028,87.316 255.670,86.970 256.380 C 86.625 257.089,86.333 257.711,86.321 257.761 C 86.292 257.894,85.567 259.462,84.736 261.191 C 84.340 262.013,84.017 262.777,84.017 262.888 C 84.017 262.999,83.733 263.695,83.386 264.433 C 83.039 265.172,82.367 266.766,81.892 267.976 C 81.417 269.186,80.963 270.305,80.883 270.463 C 80.728 270.771,80.403 271.613,79.813 273.238 C 79.611 273.795,79.096 275.164,78.669 276.278 C 78.242 277.393,77.874 278.388,77.851 278.489 C 77.828 278.591,77.710 278.916,77.588 279.213 C 77.467 279.509,77.154 280.421,76.893 281.239 C 76.632 282.057,76.053 283.846,75.606 285.214 C 75.159 286.582,74.757 287.909,74.712 288.162 C 74.667 288.415,74.428 289.452,74.182 290.465 C 73.935 291.479,73.684 292.735,73.625 293.257 C 73.565 293.779,73.477 294.318,73.428 294.455 C 73.334 294.717,73.233 295.607,73.023 298.019 C 72.752 301.126,72.883 308.451,73.243 310.287 C 73.290 310.532,73.377 311.105,73.434 311.561 C 73.492 312.018,73.571 312.515,73.610 312.667 C 73.648 312.819,73.733 313.315,73.797 313.769 C 73.861 314.222,73.944 314.644,73.982 314.706 C 74.020 314.767,74.185 315.473,74.347 316.276 C 74.510 317.078,74.819 318.314,75.034 319.023 C 75.250 319.733,75.432 320.355,75.440 320.405 C 75.448 320.456,75.521 320.601,75.601 320.728 C 75.681 320.854,75.705 320.958,75.654 320.958 C 75.603 320.958,75.729 321.435,75.933 322.018 C 76.138 322.600,76.344 323.273,76.391 323.512 C 76.438 323.751,76.633 324.414,76.825 324.986 C 77.256 326.275,78.634 331.857,78.754 332.801 C 78.802 333.184,78.885 333.567,78.938 333.652 C 78.991 333.737,79.087 334.253,79.152 334.799 C 79.216 335.344,79.297 335.838,79.331 335.897 C 79.387 335.993,79.713 337.865,79.873 339.014 C 79.909 339.268,79.980 339.724,80.031 340.028 C 80.113 340.513,80.206 341.313,80.600 344.910 C 80.650 345.366,80.741 346.651,80.802 347.766 C 80.864 348.881,80.950 349.907,80.995 350.048 C 81.081 350.319,81.066 360.219,80.978 361.308 C 80.949 361.663,80.871 362.782,80.804 363.795 C 80.635 366.338,80.404 368.434,79.961 371.442 C 79.592 373.951,79.561 374.205,79.624 374.205 C 79.659 374.204,80.826 373.630,82.218 372.928 C 83.610 372.226,84.919 371.598,85.126 371.533 C 85.334 371.467,86.060 371.155,86.741 370.839 C 87.421 370.524,88.019 370.260,88.070 370.253 C 88.210 370.233,89.340 369.775,90.373 369.320 C 90.880 369.096,91.502 368.854,91.755 368.781 C 92.008 368.708,92.488 368.526,92.821 368.375 C 93.154 368.225,93.569 368.072,93.742 368.035 C 93.916 367.999,95.157 367.590,96.499 367.127 C 97.842 366.664,99.251 366.206,99.631 366.110 C 100.011 366.014,100.654 365.845,101.059 365.735 C 102.195 365.427,102.204 365.425,104.652 364.815 C 105.919 364.499,107.285 364.153,107.688 364.045 C 108.091 363.936,108.879 363.777,109.438 363.690 C 109.998 363.604,111.161 363.399,112.022 363.235 C 112.883 363.072,113.850 362.908,114.170 362.871 C 114.490 362.835,115.236 362.721,115.828 362.620 C 116.420 362.518,117.526 362.380,118.287 362.313 C 119.047 362.246,119.710 362.166,119.760 362.136 C 119.842 362.088,121.681 361.932,124.182 361.761 C 124.638 361.730,126.794 361.656,128.973 361.597 C 133.784 361.466,136.831 361.332,137.448 361.223 C 137.702 361.178,138.323 361.093,138.830 361.035 C 141.850 360.685,148.227 359.223,149.701 358.542 C 149.903 358.448,150.774 358.131,151.635 357.836 C 152.946 357.389,155.962 356.109,157.353 355.410 C 158.185 354.992,158.532 354.808,159.076 354.496 C 161.488 353.114,162.007 352.833,162.140 352.833 C 162.223 352.833,162.318 352.769,162.352 352.692 C 162.386 352.614,163.284 351.977,164.348 351.276 C 165.412 350.575,166.324 349.948,166.375 349.884 C 166.426 349.820,166.965 349.405,167.573 348.962 C 168.181 348.520,168.706 348.090,168.739 348.008 C 168.773 347.926,168.918 347.858,169.062 347.858 C 169.205 347.858,169.323 347.793,169.323 347.714 C 169.323 347.634,169.566 347.425,169.864 347.250 C 170.161 347.074,170.597 346.767,170.831 346.568 C 171.203 346.252,173.418 344.443,174.346 343.697 C 174.524 343.554,174.710 343.436,174.759 343.436 C 174.854 343.436,175.396 342.997,176.590 341.953 C 177.001 341.593,177.711 341.014,178.167 340.666 C 178.623 340.318,179.079 339.943,179.180 339.832 C 179.281 339.722,179.860 339.223,180.466 338.724 C 181.616 337.777,182.412 337.089,183.435 336.158 C 183.769 335.854,184.516 335.191,185.095 334.684 C 185.673 334.178,186.457 333.473,186.836 333.118 C 187.214 332.764,188.288 331.769,189.222 330.907 C 190.156 330.046,192.273 328.009,193.927 326.381 L 196.934 323.422 195.888 322.320 C 193.147 319.436,192.229 318.439,191.973 318.071 C 191.820 317.851,191.159 317.098,190.504 316.398 C 189.850 315.697,188.996 314.743,188.608 314.278 C 187.911 313.441,187.899 313.435,187.503 313.768 C 187.283 313.953,186.688 314.441,186.181 314.854 C 185.675 315.267,185.134 315.710,184.981 315.840 C 184.827 315.969,184.329 316.359,183.875 316.706 C 183.421 317.053,182.966 317.426,182.863 317.535 C 181.810 318.658,174.724 323.665,172.731 324.695 C 164.039 329.186,152.776 329.529,141.225 325.655 C 138.220 324.647,138.385 324.709,135.794 323.611 C 133.508 322.642,128.205 319.899,128.082 319.622 C 128.049 319.546,127.942 319.484,127.845 319.484 C 127.748 319.484,127.444 319.331,127.169 319.144 C 126.894 318.958,126.338 318.600,125.933 318.350 C 124.227 317.296,122.398 316.042,121.881 315.570 C 121.576 315.292,121.244 315.062,121.142 315.060 C 121.041 315.058,120.696 314.830,120.376 314.553 C 120.056 314.276,119.639 313.924,119.450 313.772 C 119.260 313.620,118.693 313.167,118.189 312.764 C 116.386 311.324,111.649 306.705,110.355 305.125 C 109.904 304.575,109.099 303.643,108.567 303.054 C 108.035 302.466,107.600 301.920,107.600 301.842 C 107.600 301.764,107.404 301.489,107.165 301.231 C 106.926 300.973,106.629 300.574,106.506 300.344 C 106.383 300.114,106.161 299.787,106.011 299.618 C 104.774 298.209,100.415 290.288,100.415 289.448 C 100.415 289.288,100.345 289.078,100.259 288.982 C 99.863 288.534,98.344 283.429,98.097 281.713 C 98.046 281.359,97.912 280.613,97.800 280.055 C 97.566 278.890,97.494 273.269,97.693 271.764 C 97.842 270.639,98.138 268.923,98.281 268.356 C 98.621 267.005,99.042 265.658,99.780 263.565 C 100.245 262.248,100.648 261.087,100.676 260.986 C 100.704 260.884,100.778 260.677,100.840 260.525 C 100.901 260.373,101.295 259.295,101.715 258.130 C 102.134 256.965,102.686 255.514,102.941 254.906 C 103.195 254.298,103.470 253.634,103.551 253.432 C 103.633 253.229,103.964 252.400,104.288 251.589 C 104.612 250.778,105.025 249.784,105.205 249.378 C 105.385 248.973,105.925 247.729,106.406 246.614 C 106.886 245.500,107.368 244.422,107.477 244.219 C 107.586 244.017,107.695 243.728,107.719 243.578 C 107.744 243.428,107.852 243.276,107.959 243.240 C 108.065 243.204,108.153 243.087,108.153 242.978 C 108.153 242.756,110.820 237.326,111.865 235.421 C 112.240 234.737,112.511 234.178,112.466 234.178 C 112.422 234.178,112.609 233.825,112.881 233.395 C 113.153 232.964,113.681 232.031,114.053 231.322 C 114.960 229.594,115.496 228.658,115.913 228.069 C 116.104 227.800,116.260 227.521,116.260 227.448 C 116.260 227.303,117.202 225.706,118.377 223.860 C 118.797 223.201,119.383 222.266,119.680 221.782 C 119.978 221.297,120.449 220.602,120.728 220.236 C 121.006 219.871,121.234 219.508,121.234 219.431 C 121.234 219.353,121.773 218.515,122.430 217.568 C 123.088 216.620,124.182 215.016,124.861 214.003 C 125.541 212.989,126.288 211.954,126.521 211.702 C 126.755 211.449,126.946 211.174,126.946 211.090 C 126.946 211.005,127.050 210.821,127.176 210.680 C 127.516 210.300,127.705 210.054,128.512 208.936 C 129.451 207.635,129.307 207.821,130.864 205.896 C 131.601 204.984,132.463 203.906,132.779 203.501 L 133.353 202.763 132.843 200.436 C 132.562 199.156,132.282 197.692,132.220 197.184 C 132.158 196.675,132.069 196.147,132.023 196.011 C 131.977 195.874,131.895 195.472,131.841 195.117 C 131.582 193.416,131.229 191.601,131.139 191.511 C 131.108 191.480,130.712 191.875,130.258 192.388 M254.740 196.528 C 254.652 196.941,254.163 199.598,253.812 201.566 C 253.769 201.809,253.486 203.159,253.426 203.409 C 253.414 203.459,253.337 203.915,253.256 204.422 C 253.175 204.929,253.045 205.468,252.967 205.620 C 252.890 205.772,252.784 206.186,252.732 206.541 C 252.680 206.895,252.374 208.222,252.051 209.489 C 251.727 210.755,251.356 212.248,251.224 212.805 C 250.807 214.571,250.375 216.181,250.036 217.227 C 249.855 217.784,249.566 218.738,249.392 219.346 C 248.865 221.192,247.972 224.114,247.815 224.505 C 247.734 224.708,247.540 225.288,247.383 225.795 C 247.226 226.301,246.923 227.172,246.708 227.729 C 246.494 228.287,246.086 229.406,245.801 230.216 C 244.441 234.096,243.797 235.787,243.355 236.640 C 243.257 236.829,243.150 237.124,243.116 237.296 C 243.083 237.468,242.873 238.018,242.649 238.519 C 242.425 239.019,242.136 239.678,242.006 239.982 C 241.877 240.286,241.590 240.949,241.370 241.456 C 241.149 241.962,240.845 242.667,240.693 243.022 C 240.542 243.376,240.258 243.968,240.062 244.336 C 239.866 244.705,239.705 245.140,239.705 245.304 C 239.705 245.467,239.622 245.601,239.521 245.601 C 239.420 245.601,239.354 245.663,239.375 245.739 C 239.396 245.815,239.012 246.707,238.521 247.720 C 238.030 248.733,237.625 249.604,237.620 249.655 C 237.616 249.705,237.502 249.857,237.368 249.992 C 237.233 250.127,237.169 250.313,237.227 250.406 C 237.285 250.500,237.244 250.576,237.137 250.576 C 237.029 250.576,236.958 250.638,236.978 250.714 C 236.999 250.790,236.790 251.287,236.515 251.818 C 236.240 252.350,236.010 252.847,236.004 252.924 C 235.998 253.000,235.844 253.312,235.661 253.616 C 235.478 253.920,235.058 254.666,234.728 255.274 C 233.753 257.068,233.224 258.026,233.101 258.222 C 233.038 258.323,232.982 258.448,232.978 258.498 C 232.950 258.843,226.830 268.997,225.760 270.474 C 225.576 270.728,225.102 271.474,224.706 272.133 C 224.311 272.791,223.875 273.397,223.739 273.478 C 223.603 273.559,223.491 273.701,223.491 273.793 C 223.491 273.885,222.991 274.676,222.380 275.550 C 221.769 276.424,221.085 277.401,220.860 277.722 C 220.635 278.042,220.410 278.346,220.359 278.397 C 220.309 278.448,220.184 278.627,220.083 278.796 C 219.847 279.190,216.108 284.124,215.809 284.437 C 215.685 284.567,215.317 285.044,214.992 285.497 C 214.667 285.949,214.332 286.320,214.248 286.320 C 214.164 286.320,214.095 286.405,214.095 286.509 C 214.095 286.668,213.662 287.207,212.707 288.234 C 212.603 288.347,212.134 288.936,211.665 289.544 C 211.197 290.152,210.506 290.981,210.129 291.386 C 209.753 291.792,209.239 292.372,208.986 292.676 C 208.011 293.849,205.410 296.703,203.683 298.495 C 203.431 298.757,203.224 299.025,203.224 299.090 C 203.224 299.241,205.822 301.813,207.911 303.731 C 208.794 304.542,209.945 305.599,210.467 306.080 C 211.684 307.201,211.615 307.233,213.542 304.647 C 214.499 303.363,216.010 301.529,216.168 301.459 C 216.244 301.425,216.306 301.311,216.306 301.207 C 216.306 301.102,216.534 300.748,216.813 300.419 C 217.091 300.091,217.485 299.588,217.688 299.301 C 217.890 299.015,218.229 298.567,218.441 298.308 C 218.653 298.048,218.902 297.701,218.994 297.538 C 219.086 297.374,219.395 296.960,219.680 296.617 C 219.965 296.273,220.690 295.288,221.291 294.427 C 221.893 293.565,222.451 292.778,222.532 292.676 C 222.614 292.575,223.049 291.957,223.500 291.304 C 225.781 287.999,226.808 286.467,226.808 286.370 C 226.808 286.310,227.130 285.839,227.524 285.323 C 227.917 284.807,228.296 284.199,228.365 283.971 C 228.434 283.743,228.568 283.556,228.663 283.556 C 228.757 283.556,228.835 283.432,228.835 283.280 C 228.835 283.128,228.918 283.003,229.019 283.003 C 229.120 283.003,229.203 282.891,229.203 282.753 C 229.203 282.615,229.493 282.138,229.846 281.693 C 230.200 281.248,230.490 280.817,230.491 280.734 C 230.492 280.651,230.710 280.299,230.975 279.951 C 231.241 279.603,231.392 279.318,231.312 279.318 C 231.231 279.318,231.334 279.132,231.539 278.904 C 231.744 278.676,231.967 278.365,232.034 278.213 C 232.100 278.061,232.316 277.688,232.512 277.384 C 232.709 277.080,233.290 276.085,233.803 275.173 C 234.316 274.261,234.954 273.141,235.220 272.685 C 235.486 272.229,235.873 271.566,236.080 271.211 C 236.462 270.557,236.987 269.579,238.203 267.250 C 238.573 266.541,238.938 265.933,239.014 265.899 C 239.090 265.865,239.152 265.758,239.152 265.660 C 239.152 265.562,239.504 264.844,239.934 264.063 C 240.363 263.283,240.695 262.582,240.671 262.506 C 240.646 262.430,240.723 262.368,240.841 262.368 C 240.960 262.368,241.005 262.316,240.942 262.254 C 240.880 262.191,240.949 262.018,241.098 261.870 C 241.246 261.722,241.320 261.525,241.262 261.431 C 241.205 261.338,241.245 261.262,241.353 261.262 C 241.460 261.262,241.534 261.200,241.518 261.124 C 241.502 261.048,242.058 259.825,242.754 258.406 C 243.450 256.988,244.023 255.769,244.027 255.698 C 244.031 255.627,244.139 255.465,244.265 255.339 C 244.392 255.212,244.496 255.034,244.496 254.943 C 244.496 254.852,244.774 254.185,245.115 253.460 C 245.926 251.735,246.869 249.591,247.721 247.536 C 248.098 246.624,248.552 245.546,248.729 245.140 C 249.168 244.136,250.405 241.172,250.575 240.719 C 251.598 237.991,251.997 236.909,252.614 235.191 C 253.014 234.076,253.418 232.999,253.512 232.796 C 253.605 232.593,253.821 231.971,253.992 231.414 C 254.162 230.857,254.617 229.489,255.003 228.374 C 255.755 226.205,256.445 224.126,256.563 223.676 C 256.896 222.405,257.437 220.552,257.585 220.175 C 257.685 219.922,257.805 219.549,257.853 219.346 C 257.900 219.143,258.194 218.107,258.505 217.043 C 259.101 215.003,260.097 211.314,260.346 210.226 C 260.427 209.871,260.534 209.415,260.584 209.212 C 261.098 207.106,261.444 205.623,261.517 205.203 C 261.567 204.924,261.660 204.529,261.724 204.325 C 261.833 203.982,261.310 203.142,260.341 202.106 C 260.189 201.944,259.608 201.281,259.051 200.633 C 257.511 198.843,256.648 197.880,255.707 196.898 L 254.850 196.004 254.740 196.528 M113.317 242.331 C 112.562 243.876,111.938 245.182,111.932 245.233 C 111.920 245.320,111.206 246.844,110.251 248.818 C 109.651 250.060,109.354 249.862,114.694 251.785 C 116.011 252.259,117.338 252.754,117.642 252.884 C 118.064 253.064,123.703 254.972,124.182 255.096 C 124.233 255.109,124.523 255.180,124.827 255.254 C 125.131 255.328,125.517 255.462,125.684 255.552 C 125.852 255.642,126.515 255.849,127.158 256.012 C 127.802 256.175,128.768 256.471,129.306 256.668 C 129.844 256.866,130.591 257.100,130.965 257.189 C 131.338 257.277,132.308 257.536,133.118 257.763 C 136.251 258.642,137.188 258.894,137.632 258.980 C 137.886 259.029,139.378 259.392,140.949 259.786 C 146.911 261.284,149.503 261.843,155.965 263.024 C 158.555 263.498,161.146 263.927,162.690 264.138 C 163.146 264.200,163.685 264.283,163.888 264.323 C 164.090 264.363,164.712 264.441,165.269 264.497 C 165.827 264.554,166.407 264.633,166.559 264.674 C 166.711 264.715,167.250 264.799,167.757 264.861 C 168.263 264.923,168.885 265.003,169.139 265.038 C 169.932 265.148,171.405 265.317,172.338 265.404 C 172.830 265.450,173.369 265.526,173.535 265.573 C 173.701 265.620,174.656 265.712,175.656 265.778 C 176.656 265.844,177.610 265.923,177.775 265.953 C 178.064 266.005,179.585 266.125,182.681 266.340 C 183.491 266.396,184.528 266.476,184.984 266.518 C 190.181 267.000,211.196 266.998,215.477 266.516 C 216.194 266.435,217.033 266.369,220.451 266.126 C 223.278 265.924,223.536 265.850,223.952 265.117 C 224.372 264.378,225.237 262.976,225.825 262.082 C 226.044 261.749,226.176 261.428,226.117 261.369 C 226.058 261.310,226.092 261.262,226.193 261.262 C 226.294 261.262,226.571 260.848,226.808 260.341 C 227.045 259.834,227.296 259.420,227.364 259.420 C 227.433 259.420,227.644 259.067,227.834 258.637 C 228.024 258.206,228.223 257.812,228.277 257.761 C 228.507 257.543,228.825 256.840,228.693 256.840 C 228.562 256.840,226.420 257.092,224.781 257.300 C 224.427 257.345,223.432 257.464,222.570 257.564 C 221.709 257.664,220.507 257.803,219.899 257.874 C 219.291 257.945,218.627 258.023,218.425 258.047 C 218.222 258.072,217.227 258.146,216.214 258.212 C 215.200 258.278,214.205 258.365,214.003 258.404 C 211.451 258.901,191.771 258.901,185.905 258.404 C 182.388 258.106,181.664 258.039,178.966 257.757 C 177.936 257.650,176.941 257.535,176.755 257.501 C 176.569 257.467,175.919 257.384,175.311 257.317 C 173.253 257.088,169.568 256.562,168.125 256.291 C 167.619 256.196,166.914 256.075,166.559 256.022 C 166.205 255.969,165.707 255.886,165.454 255.838 C 165.200 255.790,164.288 255.616,163.427 255.452 C 162.566 255.288,160.949 254.953,159.834 254.708 C 158.719 254.462,157.351 254.176,156.794 254.071 C 156.237 253.966,155.491 253.801,155.136 253.705 C 154.781 253.608,153.123 253.193,151.451 252.783 C 149.779 252.373,148.162 251.960,147.858 251.865 C 147.127 251.636,145.180 251.062,143.805 250.669 C 142.050 250.168,136.306 248.332,135.698 248.078 C 135.394 247.951,134.150 247.501,132.934 247.078 C 131.718 246.655,130.350 246.157,129.894 245.970 C 129.438 245.784,128.360 245.359,127.499 245.026 C 126.637 244.694,125.725 244.314,125.472 244.183 C 125.219 244.052,124.948 243.945,124.871 243.944 C 124.729 243.943,123.926 243.597,121.825 242.633 C 121.187 242.340,120.627 242.100,120.581 242.100 C 120.534 242.100,119.253 241.520,117.734 240.811 C 116.214 240.101,114.908 239.521,114.831 239.521 C 114.754 239.521,114.073 240.785,113.317 242.331 M307.877 247.194 C 307.399 247.434,305.659 248.232,304.156 248.901 C 303.680 249.113,303.203 249.286,303.096 249.286 C 302.989 249.286,302.902 249.356,302.902 249.441 C 302.902 249.526,302.550 249.708,302.119 249.845 C 301.688 249.982,300.701 250.410,299.925 250.796 C 299.149 251.181,298.426 251.497,298.317 251.497 C 297.585 251.497,296.116 252.500,296.311 252.866 C 296.424 253.076,296.496 253.247,296.472 253.247 C 296.410 253.247,296.637 253.894,296.940 254.579 C 297.085 254.906,297.410 255.735,297.663 256.422 C 297.915 257.108,298.200 257.835,298.295 258.038 C 298.390 258.240,298.919 259.733,299.470 261.354 C 300.021 262.976,300.606 264.670,300.770 265.119 C 301.068 265.940,301.581 267.799,301.730 268.605 C 301.774 268.843,301.927 269.548,302.069 270.171 C 302.720 273.028,302.572 279.000,301.765 282.450 C 301.563 283.312,301.360 284.214,301.313 284.455 C 301.160 285.240,299.938 288.802,299.759 288.982 C 299.664 289.078,299.585 289.267,299.585 289.402 C 299.585 289.536,299.295 290.258,298.941 291.006 C 298.586 291.753,298.296 292.416,298.296 292.480 C 298.296 292.543,297.954 293.167,297.537 293.867 C 297.120 294.566,296.790 295.187,296.804 295.247 C 296.818 295.306,296.738 295.457,296.627 295.582 C 296.515 295.706,296.119 296.317,295.748 296.939 C 294.727 298.647,293.661 300.223,293.481 300.292 C 293.393 300.326,293.321 300.434,293.321 300.532 C 293.321 300.630,293.073 300.976,292.769 301.300 C 292.466 301.624,292.217 301.938,292.216 301.999 C 292.216 302.059,292.070 302.278,291.893 302.484 C 291.716 302.691,291.322 303.172,291.018 303.553 C 289.269 305.748,284.819 310.270,282.618 312.091 C 282.297 312.357,281.858 312.730,281.643 312.920 C 280.915 313.563,276.406 316.905,276.266 316.905 C 276.190 316.905,275.706 317.226,275.190 317.618 C 274.305 318.291,269.902 320.958,269.677 320.958 C 269.619 320.958,268.801 321.379,267.859 321.894 C 266.916 322.408,265.772 322.980,265.316 323.165 C 264.860 323.349,263.595 323.876,262.506 324.335 C 261.416 324.794,260.525 325.124,260.525 325.068 C 260.525 325.012,260.388 325.080,260.220 325.219 C 260.053 325.358,259.866 325.455,259.806 325.435 C 259.745 325.415,258.902 325.645,257.931 325.946 C 256.960 326.248,256.007 326.532,255.812 326.577 C 255.618 326.622,255.127 326.749,254.721 326.859 C 253.800 327.109,251.773 327.504,249.378 327.901 C 247.400 328.229,240.760 328.353,238.692 328.101 C 236.394 327.821,234.152 327.367,232.796 326.906 C 232.289 326.734,231.833 326.587,231.783 326.579 C 231.533 326.542,229.740 325.837,228.908 325.450 C 228.392 325.209,227.916 325.012,227.853 325.012 C 227.789 325.012,227.283 324.721,226.728 324.367 C 226.174 324.012,225.667 323.722,225.602 323.722 C 225.536 323.722,225.223 323.535,224.906 323.307 C 224.588 323.079,224.192 322.810,224.026 322.708 C 223.007 322.086,221.047 320.593,220.943 320.359 C 220.909 320.283,220.764 320.221,220.620 320.221 C 220.477 320.221,220.359 320.140,220.359 320.042 C 220.359 319.943,220.131 319.743,219.853 319.597 C 219.574 319.451,219.180 319.177,218.977 318.988 C 218.775 318.799,218.319 318.444,217.964 318.198 C 217.609 317.952,217.185 317.602,217.021 317.420 C 216.857 317.238,216.671 317.089,216.607 317.089 C 216.543 317.089,216.339 316.944,216.155 316.766 C 215.970 316.589,215.535 316.223,215.187 315.953 C 214.840 315.683,214.378 315.310,214.162 315.124 C 213.945 314.938,213.455 314.537,213.073 314.233 C 212.690 313.929,212.194 313.494,211.971 313.266 C 211.748 313.038,211.501 312.851,211.423 312.851 C 211.345 312.851,211.105 312.665,210.889 312.437 C 210.673 312.209,209.963 311.566,209.311 311.009 C 208.660 310.451,207.821 309.705,207.446 309.351 C 207.072 308.996,206.080 308.084,205.243 307.324 C 202.249 304.607,196.029 298.297,192.966 294.871 C 190.460 292.066,190.153 291.714,189.295 290.649 C 188.805 290.041,188.194 289.324,187.937 289.056 C 187.681 288.788,187.264 288.303,187.011 287.978 C 186.757 287.654,186.366 287.168,186.142 286.900 C 185.917 286.631,185.316 285.873,184.806 285.214 C 184.296 284.556,183.717 283.809,183.520 283.556 C 183.322 283.303,182.908 282.764,182.600 282.358 C 182.292 281.953,181.974 281.538,181.892 281.437 C 181.364 280.782,180.030 278.979,179.659 278.419 C 179.416 278.052,179.167 277.711,179.106 277.660 C 178.965 277.543,177.648 275.612,177.127 274.760 C 176.910 274.404,176.620 274.042,176.483 273.955 C 176.345 273.868,176.309 273.795,176.402 273.794 C 176.496 273.792,176.381 273.587,176.147 273.337 C 175.912 273.088,175.628 272.727,175.516 272.535 C 174.381 270.606,174.061 270.104,173.958 270.091 C 173.891 270.082,173.671 270.052,173.468 270.024 C 173.266 269.995,172.561 269.919,171.902 269.854 C 170.575 269.724,166.644 269.245,165.638 269.091 C 165.283 269.037,164.465 268.908,163.820 268.803 C 162.514 268.592,162.306 268.658,162.746 269.144 C 162.910 269.326,163.179 269.762,163.344 270.113 C 163.509 270.464,163.883 271.165,164.176 271.672 C 164.469 272.179,164.768 272.718,164.840 272.870 C 164.912 273.022,165.245 273.577,165.581 274.104 C 165.916 274.632,166.191 275.143,166.191 275.241 C 166.191 275.338,166.254 275.446,166.331 275.480 C 166.483 275.547,168.586 279.034,168.586 279.220 C 168.586 279.283,168.673 279.434,168.779 279.556 C 169.049 279.869,170.156 281.593,170.290 281.911 C 170.433 282.249,174.794 288.884,175.672 290.097 C 177.064 292.021,179.556 295.556,179.733 295.856 C 179.834 296.028,180.007 296.253,180.116 296.357 C 180.226 296.461,180.719 297.126,181.211 297.835 C 181.703 298.544,182.156 299.166,182.218 299.217 C 182.280 299.268,182.530 299.599,182.774 299.954 C 183.017 300.309,183.780 301.278,184.469 302.108 C 185.157 302.938,185.721 303.663,185.721 303.720 C 185.721 303.777,185.866 303.978,186.043 304.168 C 186.221 304.358,186.549 304.752,186.772 305.043 C 186.996 305.335,187.375 305.797,187.614 306.069 C 187.853 306.342,188.208 306.793,188.404 307.073 C 188.601 307.352,188.989 307.790,189.268 308.046 C 189.546 308.302,189.774 308.573,189.774 308.648 C 189.774 308.723,190.014 309.030,190.306 309.329 C 190.599 309.629,191.076 310.190,191.366 310.576 C 191.656 310.963,192.100 311.490,192.354 311.749 C 192.607 312.007,193.312 312.796,193.920 313.501 C 194.528 314.207,195.191 314.965,195.394 315.185 C 195.596 315.406,196.083 315.945,196.475 316.384 C 199.498 319.765,206.910 327.301,210.705 330.852 C 212.871 332.878,213.073 333.062,214.832 334.592 C 215.472 335.150,216.450 336.020,217.005 336.527 C 218.251 337.664,218.243 337.658,220.698 339.659 C 220.947 339.862,221.393 340.256,221.690 340.534 C 221.987 340.813,222.300 341.041,222.385 341.041 C 222.470 341.041,222.567 341.106,222.601 341.185 C 222.661 341.324,225.049 343.316,226.535 344.465 C 229.225 346.546,231.561 348.314,233.072 349.415 C 234.035 350.115,234.850 350.757,234.884 350.840 C 234.918 350.922,235.030 350.990,235.134 350.990 C 235.238 350.990,235.624 351.225,235.994 351.512 C 236.363 351.800,236.789 352.093,236.942 352.165 C 237.508 352.431,238.056 352.784,238.434 353.126 C 238.648 353.319,238.835 353.441,238.849 353.396 C 238.864 353.351,239.399 353.620,240.038 353.995 C 240.676 354.369,241.267 354.675,241.351 354.675 C 241.434 354.675,241.605 354.799,241.730 354.950 C 241.855 355.100,242.031 355.179,242.121 355.123 C 242.211 355.067,242.285 355.110,242.285 355.217 C 242.285 355.324,242.371 355.412,242.477 355.412 C 242.583 355.412,243.290 355.702,244.048 356.057 C 244.805 356.412,245.462 356.702,245.508 356.702 C 245.554 356.702,246.029 356.902,246.563 357.147 C 248.318 357.951,251.598 359.033,254.399 359.731 C 255.032 359.889,256.027 360.138,256.610 360.285 C 257.193 360.431,258.161 360.601,258.762 360.663 C 259.362 360.724,259.904 360.805,259.966 360.843 C 260.027 360.881,260.572 360.966,261.176 361.031 C 261.781 361.096,262.400 361.182,262.552 361.222 C 262.927 361.319,266.250 361.466,271.027 361.596 C 273.206 361.656,275.362 361.730,275.818 361.761 C 278.561 361.950,280.045 362.067,280.654 362.143 C 281.034 362.191,281.697 362.273,282.128 362.325 C 283.016 362.434,284.211 362.609,284.746 362.709 C 285.143 362.783,286.059 362.917,287.057 363.048 C 287.411 363.095,288.075 363.212,288.531 363.308 C 290.610 363.746,291.432 363.905,292.031 363.984 C 292.386 364.031,293.961 364.404,295.532 364.815 C 297.103 365.225,298.594 365.604,298.846 365.657 C 299.380 365.769,302.787 366.857,304.652 367.511 C 305.362 367.759,306.191 368.028,306.495 368.108 C 307.253 368.307,311.428 369.987,311.644 370.180 C 311.741 370.266,311.948 370.339,312.105 370.342 C 312.262 370.345,312.886 370.594,313.491 370.895 C 314.097 371.196,314.698 371.442,314.827 371.442 C 314.956 371.442,315.062 371.525,315.062 371.626 C 315.062 371.727,315.166 371.812,315.292 371.814 C 315.419 371.816,316.600 372.349,317.916 372.998 C 319.232 373.648,320.329 374.159,320.353 374.135 C 320.377 374.111,320.311 373.565,320.208 372.920 C 320.104 372.276,319.981 371.410,319.934 370.996 C 319.887 370.583,319.820 370.037,319.785 369.784 C 319.751 369.530,319.660 368.784,319.584 368.125 C 319.508 367.467,319.415 366.679,319.377 366.375 C 319.339 366.071,319.261 364.869,319.203 363.703 C 319.145 362.538,319.057 361.392,319.008 361.156 C 318.894 360.616,318.910 350.908,319.027 349.424 C 319.075 348.816,319.153 347.780,319.199 347.121 C 319.277 346.017,319.726 341.947,319.961 340.212 C 320.063 339.458,320.688 335.712,320.960 334.224 C 321.211 332.852,321.279 332.526,321.578 331.249 C 321.736 330.575,321.906 329.829,321.955 329.590 C 322.040 329.181,322.143 328.744,322.329 328.006 C 322.374 327.828,322.547 327.186,322.714 326.578 C 322.881 325.970,323.037 325.389,323.061 325.288 C 323.146 324.931,323.933 322.331,324.178 321.603 C 325.350 318.111,326.302 313.924,326.756 310.272 C 327.165 306.976,327.289 299.687,326.966 297.927 C 326.920 297.674,326.830 296.845,326.768 296.085 C 326.705 295.325,326.617 294.537,326.571 294.334 C 326.526 294.132,326.455 293.759,326.414 293.505 C 326.169 292.008,326.051 291.420,325.721 290.047 C 325.519 289.208,325.316 288.314,325.270 288.058 C 325.224 287.803,324.768 286.291,324.258 284.700 C 323.238 281.517,323.231 281.495,323.181 281.304 C 323.161 281.230,322.938 280.650,322.684 280.014 C 322.431 279.378,322.191 278.708,322.152 278.525 C 322.113 278.342,321.870 277.658,321.612 277.005 C 321.354 276.352,320.931 275.283,320.673 274.630 C 320.415 273.977,320.174 273.293,320.138 273.110 C 320.049 272.663,318.763 269.468,317.110 265.591 C 316.592 264.374,316.168 263.275,316.168 263.149 C 316.168 263.023,316.085 262.920,315.983 262.920 C 315.882 262.920,315.799 262.789,315.799 262.630 C 315.799 262.344,314.996 260.538,313.942 258.452 C 313.647 257.869,313.412 257.371,313.418 257.346 C 313.472 257.140,311.126 252.253,309.411 248.999 C 308.350 246.987,308.332 246.965,307.877 247.194 " stroke="none" fill="#048c2f" fill-rule="evenodd"></path><path id="path3" d="M286.678 308.199 L 286.043 308.890 286.734 308.255 C 287.377 307.664,287.510 307.508,287.369 307.508 C 287.338 307.508,287.027 307.819,286.678 308.199 " stroke="none" fill="#108c34" fill-rule="evenodd"></path><path id="path4" d="M286.678 308.199 L 286.043 308.890 286.734 308.255 C 287.377 307.664,287.510 307.508,287.369 307.508 C 287.338 307.508,287.027 307.819,286.678 308.199 " stroke="none" fill="#108c34" fill-rule="evenodd"></path></g></svg>